<?xml version="1.0" encoding="UTF-8" standalone="no"?>
<svg width="85px" height="85px" viewBox="0 0 85 85" version="1.1" xmlns="http://www.w3.org/2000/svg" xmlns:xlink="http://www.w3.org/1999/xlink">
    <!-- Generator: Sketch 49.3 (51167) - http://www.bohemiancoding.com/sketch -->
    <title>Group</title>
    <desc>Created with Sketch.</desc>
    <defs>
        <polygon id="path-1" points="0 0.0721561969 84.9654237 0.0721561969 84.9654237 84.8556299 0 84.8556299"></polygon>
    </defs>
    <g id="Page-1" stroke="none" stroke-width="1" fill="none" fill-rule="evenodd">
        <g id="Mainpage-Copy-6" transform="translate(-378.000000, -1685.000000)">
            <g id="Group" transform="translate(378.000000, 1685.000000)">
                <path d="M69.6942373,73.4189304 C69.6942373,74.5532258 68.7722034,75.475382 67.6412712,75.475382 L55.3955085,75.475382 C54.2632797,75.475382 53.3425424,74.5532258 53.3425424,73.4189304 C53.3425424,72.284635 54.2632797,71.3624788 55.3955085,71.3624788 L67.6412712,71.3624788 C68.7722034,71.3624788 69.6942373,72.284635 69.6942373,73.4189304" id="Fill-1" fill="#8BC5FF"></path>
                <path d="M11.2848737,8.47398048 C11.2848737,10.01668 10.0314839,11.2721978 8.49125508,11.2721978 C6.95131441,11.2721978 5.69922119,10.01668 5.69922119,8.47398048 C5.69922119,6.9314253 6.95131441,5.67576316 8.49125508,5.67576316 C10.0314839,5.67576316 11.2848737,6.9314253 11.2848737,8.47398048" id="Fill-3" fill="#8BC5FF"></path>
                <path d="M21.7240263,8.47398048 C21.7240263,10.01668 20.4706364,11.2721978 18.9305517,11.2721978 C17.3904669,11.2721978 16.1370771,10.01668 16.1370771,8.47398048 C16.1370771,6.9314253 17.3904669,5.67576316 18.9305517,5.67576316 C20.4706364,5.67576316 21.7240263,6.9314253 21.7240263,8.47398048" id="Fill-5" fill="#8BC5FF"></path>
                <path d="M32.1617669,8.47398048 C32.1617669,10.01668 30.9098178,11.2721978 29.3681483,11.2721978 C27.8282076,11.2721978 26.5761144,10.01668 26.5761144,8.47398048 C26.5761144,6.9314253 27.8282076,5.67576316 29.3681483,5.67576316 C30.9098178,5.67576316 32.1617669,6.9314253 32.1617669,8.47398048" id="Fill-7" fill="#8BC5FF"></path>
                <path d="M22.8865525,44.5983022 C21.1780525,44.5983022 19.583078,44.0960951 18.2418068,43.233107 C18.7274593,42.9444822 19.1798322,42.5894737 19.5888407,42.1752971 C20.5814678,42.7410017 21.7067814,43.0411715 22.8865525,43.0411715 C24.0362136,43.0411715 25.1354508,42.7554329 26.1109339,42.2171477 C26.5257051,42.6298812 26.9838407,42.9805603 27.4752559,43.2662988 C26.1469508,44.1105263 24.5721458,44.5983022 22.8865525,44.5983022 M22.8865525,27.3616299 C23.3158746,27.3616299 23.7365525,27.3933786 24.1485864,27.4554329 C27.2676542,27.9157895 29.8466119,30.0588285 30.9341797,32.9320883 C30.9068068,32.929202 30.8781373,32.929202 30.8506203,32.929202 C29.2024847,32.929202 27.8612136,34.2727504 27.8612136,35.9251273 C27.8612136,36.8617148 28.2934169,37.6972835 28.9677983,38.2471138 C28.3611288,38.4765705 27.8037305,38.8171477 27.3254254,39.2486418 C26.7246627,38.2817487 25.8269763,37.5443124 24.776722,37.1387946 C25.4610441,36.5904075 25.9020356,35.7476231 25.9020356,34.80382 C25.9020356,33.1514431 24.5606203,31.8078947 22.9110441,31.8078947 C21.2629085,31.8078947 19.9216373,33.1514431 19.9216373,34.80382 C19.9216373,35.7404075 20.3538407,36.5759762 21.028222,37.1258065 C19.9390695,37.5370968 19.0125695,38.3062818 18.4060441,39.3164686 C17.9205356,38.8604414 17.3487305,38.5025467 16.7234763,38.2601019 C17.4077983,37.7117148 17.8485017,36.8689304 17.8485017,35.9251273 C17.8485017,34.2727504 16.5073746,32.929202 14.8577983,32.929202 L14.8403661,32.929202 C16.0721458,29.6778438 19.2142644,27.3616299 22.8865525,27.3616299 M32.4139,34.7056876 C32.3460441,34.1890492 32.2379932,33.6868421 32.0897475,33.2005093 C30.9933915,29.563837 27.8021458,26.827674 23.9281627,26.407725 C23.586722,26.3702037 23.238078,26.3514431 22.8865525,26.3514431 C18.563078,26.3514431 14.8966966,29.226146 13.6922898,33.1673175 C13.5495186,33.6348896 13.4414678,34.1183362 13.3724593,34.6133277 C13.3074847,35.059253 13.2743492,35.5167233 13.2743492,35.979966 C13.2743492,36.398472 13.3018661,36.8112054 13.3535864,37.2152801 C13.4344085,37.8488115 13.5770356,38.4635823 13.7757051,39.0523769 C14.2828237,40.5575552 15.1529932,41.8982173 16.2797475,42.9675722 C16.5691797,43.2432088 16.8747475,43.4986418 17.1958746,43.7353141 C18.7894085,44.9129032 20.7586712,45.608489 22.8865525,45.608489 C24.9971458,45.608489 26.9508492,44.9230051 28.5370356,43.7641766 C28.8639254,43.5260611 29.1751119,43.2677419 29.4677136,42.9906621 C29.6332475,42.8348048 29.7931627,42.6731749 29.9473153,42.5057725 C30.847739,41.5287776 31.5494932,40.3670628 31.9873153,39.0812394 C32.2005356,38.4549236 32.3518068,37.7983022 32.4310441,37.1214771 C32.4758492,36.747708 32.4989,36.3667233 32.4989,35.979966 C32.4989,35.548472 32.4700864,35.1227504 32.4139,34.7056876" id="Fill-9" fill="#8BC5FF"></path>
                <g id="Group-13" transform="translate(0.000000, 0.072156)">
                    <mask id="mask-2" fill="white">
                        <use xlink:href="#path-1"></use>
                    </mask>
                    <g id="Clip-12"></g>
                    <path d="M83.9569492,79.9331341 C83.9569492,82.0906044 82.2050847,83.8454431 80.0514153,83.8454431 L4.91415254,83.8454431 C2.76033898,83.8454431 1.00847458,82.0906044 1.00847458,79.9331341 L1.00847458,4.99459423 C1.00847458,2.83726825 2.76033898,1.08228523 4.91415254,1.08228523 L80.0514153,1.08228523 C82.2050847,1.08228523 83.9569492,2.83726825 83.9569492,4.99459423 L83.9569492,79.9331341 Z M80.0514153,0.072098472 L4.91415254,0.072098472 C2.20423729,0.072098472 0,2.2800781 0,4.99459423 L0,79.9331341 C0,82.6477946 2.20423729,84.8556299 4.91415254,84.8556299 L80.0514153,84.8556299 C82.7611864,84.8556299 84.9654237,82.6477946 84.9654237,79.9331341 L84.9654237,4.99459423 C84.9654237,2.2800781 82.7611864,0.072098472 80.0514153,0.072098472 Z" id="Fill-11" fill="#00276B" mask="url(#mask-2)"></path>
                </g>
                <path d="M78.516978,76.7901256 C78.516978,77.8954143 77.6179949,78.7946248 76.5144356,78.7946248 L8.36460508,78.7946248 C8.12689322,78.7946248 7.89782542,78.7527742 7.68604576,78.6761443 C7.07952034,78.4569338 6.60985932,77.9518404 6.43697797,77.3255246 C6.38943559,77.1550917 6.36350339,76.9747012 6.36350339,76.7901256 L6.36350339,18.7953039 C6.36350339,17.689871 7.26104576,16.7908048 8.36460508,16.7908048 L76.5144356,16.7908048 C77.6179949,16.7908048 78.516978,17.689871 78.516978,18.7953039 L78.516978,76.7901256 Z M76.5144356,15.780618 L8.36460508,15.780618 C6.70494407,15.780618 5.35502881,17.1326808 5.35502881,18.7953039 L5.35502881,76.7901256 C5.35502881,78.4526044 6.70494407,79.8048115 8.36460508,79.8048115 L76.5144356,79.8048115 C78.1739525,79.8048115 79.5254525,78.4526044 79.5254525,76.7901256 L79.5254525,18.7953039 C79.5254525,17.1326808 78.1739525,15.780618 76.5144356,15.780618 Z" id="Fill-14" fill="#00276B"></path>
                <path d="M29.376922,41.6312394 C29.072939,41.9819185 28.7415831,42.3066214 28.3855915,42.605348 C27.8741508,42.3629032 27.4001678,42.0410866 26.9753119,41.6471138 C27.251922,41.4335314 27.5139814,41.195416 27.7590407,40.9342105 L27.9621763,40.7177419 L27.8728542,40.4334465 C27.8483627,40.3555178 27.8208458,40.2775891 27.7921763,40.2011036 C28.5687017,39.3987267 29.6505068,38.9196095 30.8262441,38.9196095 C30.8750831,38.9196095 30.9242102,38.9210526 30.9731932,38.9224958 C30.6087017,39.9254669 30.0626847,40.8418506 29.376922,41.6312394 M22.8865237,44.5983022 C21.1780237,44.5983022 19.5831932,44.0960951 18.241778,43.233107 C18.7274305,42.9444822 19.1798034,42.5894737 19.5889559,42.1752971 C20.581439,42.7410017 21.7067525,43.0411715 22.8865237,43.0411715 C24.0363288,43.0411715 25.1355661,42.7554329 26.1109051,42.2171477 C26.5256763,42.6298812 26.9839559,42.9805603 27.4752271,43.2662988 C26.146922,44.1105263 24.5721169,44.5983022 22.8865237,44.5983022 M14.7987017,38.9196095 L14.833278,38.9196095 C16.0492102,38.9196095 17.1671763,39.4333616 17.9494644,40.287691 C17.9321763,40.3367572 17.9161847,40.3843803 17.9004814,40.4334465 L17.8095746,40.7177419 L18.0142949,40.9342105 C18.2403373,41.1752122 18.4825153,41.3974533 18.7360746,41.5980475 C18.318278,41.9949066 17.8500576,42.3210526 17.347261,42.5692699 C16.2062441,41.6052632 15.3187864,40.3511885 14.7987017,38.9196095 M14.2827949,35.979966 C14.2827949,35.2887097 14.3650576,34.6147708 14.5190661,33.9696944 C14.6287017,33.9494907 14.7425153,33.9393888 14.8577695,33.9393888 C15.9512441,33.9393888 16.8399983,34.8297963 16.8399983,35.9251273 C16.8399983,37.0190153 15.9512441,37.9094228 14.8577695,37.9094228 C14.7337271,37.9094228 14.6114136,37.8978778 14.4931339,37.8747878 C14.3548288,37.2643463 14.2827949,36.6308149 14.2827949,35.979966 M20.9300831,34.80382 C20.9300831,33.708489 21.8189814,32.8180815 22.9110153,32.8180815 C24.0044898,32.8180815 24.8935322,33.708489 24.8935322,34.80382 C24.8935322,35.897708 24.0044898,36.7881154 22.9110153,36.7881154 C21.8189814,36.7881154 20.9300831,35.897708 20.9300831,34.80382 M22.8865237,42.0309847 C21.6894644,42.0309847 20.5569475,41.6673175 19.6048034,40.9904924 C19.3799136,40.8303056 19.1652525,40.6528014 18.9621169,40.4579796 C19.006922,40.3439728 19.0572017,40.2342954 19.1120915,40.1260611 C19.8194644,38.7103565 21.2643203,37.7983022 22.8865237,37.7983022 C24.4727102,37.7983022 25.8904814,38.6713922 26.6135576,40.0351443 C26.6855915,40.170798 26.7518627,40.3122241 26.8096339,40.4579796 C26.5588119,40.6975382 26.2909898,40.9125637 26.0084729,41.0987267 C25.0909051,41.7062818 24.0176,42.0309847 22.8865237,42.0309847 M22.8865237,27.3616299 C23.3159898,27.3616299 23.7366678,27.3933786 24.1485576,27.4554329 C27.2676254,27.9157895 29.8465831,30.0588285 30.9342949,32.9320883 C30.906778,32.929202 30.8781085,32.929202 30.8505915,32.929202 C29.2024559,32.929202 27.8611847,34.2727504 27.8611847,35.9251273 C27.8611847,36.8617148 28.2933881,37.6972835 28.9677695,38.2471138 C28.3611,38.4765705 27.8037017,38.8171477 27.3253966,39.2486418 C26.7246339,38.2817487 25.8269475,37.5443124 24.7766932,37.1387946 C25.4610153,36.5904075 25.9020068,35.7476231 25.9020068,34.80382 C25.9020068,33.1514431 24.5605915,31.8078947 22.9110153,31.8078947 C21.2630237,31.8078947 19.9216085,33.1514431 19.9216085,34.80382 C19.9216085,35.7404075 20.3538119,36.5759762 21.0281932,37.1258065 C19.9390407,37.5370968 19.0126847,38.3062818 18.4061593,39.3164686 C17.9205068,38.8604414 17.3487017,38.5025467 16.7234475,38.2601019 C17.4077695,37.7117148 17.8484729,36.8689304 17.8484729,35.9251273 C17.8484729,34.2727504 16.5073458,32.929202 14.8577695,32.929202 L14.8404814,32.929202 C16.0721169,29.6778438 19.2142356,27.3616299 22.8865237,27.3616299 M31.4903966,35.979966 C31.4903966,36.6264856 31.4198034,37.2556876 31.2827949,37.8617997 C31.1446339,37.8935484 30.9991254,37.9094228 30.8505915,37.9094228 C29.7585576,37.9094228 28.8696593,37.0190153 28.8696593,35.9251273 C28.8696593,34.8297963 29.7585576,33.9393888 30.8505915,33.9393888 C30.9903373,33.9393888 31.1259051,33.95382 31.2570068,33.9812394 C31.4095746,34.6234295 31.4903966,35.2915959 31.4903966,35.979966 M32.0897186,33.2005093 C30.9933627,29.563837 27.8021169,26.827674 23.928278,26.407725 C23.5868373,26.3702037 23.2381932,26.3514431 22.8865237,26.3514431 C18.5630492,26.3514431 14.8966678,29.226146 13.692261,33.1673175 C13.5496339,33.6348896 13.4415831,34.1183362 13.3724305,34.6133277 C13.3074559,35.059253 13.2743203,35.5167233 13.2743203,35.979966 C13.2743203,36.398472 13.3018373,36.8112054 13.3535576,37.2152801 C13.4343797,37.8488115 13.5770068,38.4635823 13.7756763,39.0523769 C14.2827949,40.5575552 15.1531085,41.8982173 16.2797186,42.9675722 C16.5692949,43.2432088 16.8747186,43.4986418 17.1958458,43.7353141 C18.7893797,44.9129032 20.7587864,45.608489 22.8865237,45.608489 C24.997261,45.608489 26.9508203,44.9230051 28.5370068,43.7641766 C28.8638966,43.5260611 29.1752271,43.2677419 29.4676847,42.9906621 C29.6332186,42.8348048 29.793278,42.6731749 29.9472864,42.5057725 C30.8477102,41.5287776 31.5494644,40.3670628 31.9872864,39.0812394 C32.2006508,38.4549236 32.351778,37.7983022 32.4310153,37.1214771 C32.4758203,36.747708 32.4988712,36.3667233 32.4988712,35.979966 C32.4988712,35.548472 32.4700576,35.1227504 32.4138712,34.7056876 C32.3460153,34.1890492 32.2379644,33.6868421 32.0897186,33.2005093" id="Fill-16" fill="#00276B"></path>
                <path d="M8.49131271,6.68600764 C9.47529576,6.68600764 10.2764568,7.48838455 10.2764568,8.4740382 C10.2764568,9.45969185 9.47529576,10.2620688 8.49131271,10.2620688 C7.50732966,10.2620688 6.70775339,9.45969185 6.70775339,8.4740382 C6.70775339,7.48838455 7.50732966,6.68600764 8.49131271,6.68600764 M8.49131271,11.2722555 C10.0313975,11.2722555 11.2849314,10.0167377 11.2849314,8.4740382 C11.2849314,6.93133871 10.0313975,5.67582088 8.49131271,5.67582088 C6.95137203,5.67582088 5.69927881,6.93133871 5.69927881,8.4740382 C5.69927881,10.0167377 6.95137203,11.2722555 8.49131271,11.2722555" id="Fill-18" fill="#00276B"></path>
                <path d="M18.9305949,6.68600764 C19.9144339,6.68600764 20.7155949,7.48838455 20.7155949,8.4740382 C20.7155949,9.45969185 19.9144339,10.2620688 18.9305949,10.2620688 C17.9466119,10.2620688 17.1454508,9.45969185 17.1454508,8.4740382 C17.1454508,7.48838455 17.9466119,6.68600764 18.9305949,6.68600764 M18.9305949,11.2722555 C20.4705356,11.2722555 21.7240695,10.0167377 21.7240695,8.4740382 C21.7240695,6.93133871 20.4705356,5.67582088 18.9305949,5.67582088 C17.3905102,5.67582088 16.1369763,6.93133871 16.1369763,8.4740382 C16.1369763,10.0167377 17.3905102,11.2722555 18.9305949,11.2722555" id="Fill-20" fill="#00276B"></path>
                <path d="M29.3682059,6.68600764 C30.3536297,6.68600764 31.15335,7.48838455 31.15335,8.4740382 C31.15335,9.45969185 30.3536297,10.2620688 29.3682059,10.2620688 C28.3842229,10.2620688 27.5846466,9.45969185 27.5846466,8.4740382 C27.5846466,7.48838455 28.3842229,6.68600764 29.3682059,6.68600764 M29.3682059,11.2722555 C30.9097314,11.2722555 32.1618246,10.0167377 32.1618246,8.4740382 C32.1618246,6.93133871 30.9097314,5.67582088 29.3682059,5.67582088 C27.8282653,5.67582088 26.576172,6.93133871 26.576172,8.4740382 C26.576172,10.0167377 27.8282653,11.2722555 29.3682059,11.2722555" id="Fill-22" fill="#00276B"></path>
                <path d="M39.8823314,28.5729448 L58.1934924,28.5729448 C58.4718314,28.5729448 58.6977297,28.3468073 58.6977297,28.0678514 C58.6977297,27.7888956 58.4718314,27.5627581 58.1934924,27.5627581 L39.8823314,27.5627581 C39.6038483,27.5627581 39.3780941,27.7888956 39.3780941,28.0678514 C39.3780941,28.3468073 39.6038483,28.5729448 39.8823314,28.5729448" id="Fill-24" fill="#00276B"></path>
                <path d="M39.8823314,36.4851749 L68.7574076,36.4851749 C69.0357466,36.4851749 69.2616449,36.2590374 69.2616449,35.9800815 C69.2616449,35.7011256 69.0357466,35.4749881 68.7574076,35.4749881 L39.8823314,35.4749881 C39.6038483,35.4749881 39.3780941,35.7011256 39.3780941,35.9800815 C39.3780941,36.2590374 39.6038483,36.4851749 39.8823314,36.4851749" id="Fill-26" fill="#00276B"></path>
                <path d="M39.8823314,46.8059788 L68.7574076,46.8059788 C69.0357466,46.8059788 69.2616449,46.5798413 69.2616449,46.3008854 C69.2616449,46.0219295 69.0357466,45.795792 68.7574076,45.795792 L39.8823314,45.795792 C39.6038483,45.795792 39.3780941,46.0219295 39.3780941,46.3008854 C39.3780941,46.5798413 39.6038483,46.8059788 39.8823314,46.8059788" id="Fill-28" fill="#00276B"></path>
                <path d="M69.2616161,56.6216171 C69.2616161,56.3426613 69.0358619,56.1165238 68.7573788,56.1165238 L39.8823025,56.1165238 C39.6039636,56.1165238 39.3780653,56.3426613 39.3780653,56.6216171 C39.3780653,56.900573 39.6039636,57.1267105 39.8823025,57.1267105 L68.7573788,57.1267105 C69.0358619,57.1267105 69.2616161,56.900573 69.2616161,56.6216171" id="Fill-30" fill="#00276B"></path>
                <path d="M69.2616161,66.2808209 C69.2616161,66.001865 69.0358619,65.7757275 68.7573788,65.7757275 L46.049989,65.7757275 C45.7715059,65.7757275 45.5457517,66.001865 45.5457517,66.2808209 C45.5457517,66.5597767 45.7715059,66.7859143 46.049989,66.7859143 L68.7573788,66.7859143 C69.0358619,66.7859143 69.2616161,66.5597767 69.2616161,66.2808209" id="Fill-32" fill="#00276B"></path>
                <path d="M67.6412712,74.6095076 L55.3955085,74.6095076 C54.74,74.6095076 54.2069492,74.0755518 54.2069492,73.4189304 C54.2069492,72.762309 54.74,72.2283531 55.3955085,72.2283531 L67.6412712,72.2283531 C68.2967797,72.2283531 68.8298305,72.762309 68.8298305,73.4189304 C68.8298305,74.0755518 68.2967797,74.6095076 67.6412712,74.6095076 M67.6412712,71.3624788 L55.3955085,71.3624788 C54.2632797,71.3624788 53.3425424,72.284635 53.3425424,73.4189304 C53.3425424,74.5532258 54.2632797,75.475382 55.3955085,75.475382 L67.6412712,75.475382 C68.7722034,75.475382 69.6942373,74.5532258 69.6942373,73.4189304 C69.6942373,72.284635 68.7722034,71.3624788 67.6412712,71.3624788" id="Fill-34" fill="#00276B"></path>
            </g>
        </g>
    </g>
</svg>