<?xml version="1.0" encoding="UTF-8" standalone="no"?>
<svg width="85px" height="85px" viewBox="0 0 85 85" version="1.1" xmlns="http://www.w3.org/2000/svg" xmlns:xlink="http://www.w3.org/1999/xlink">
    <!-- Generator: Sketch 49.3 (51167) - http://www.bohemiancoding.com/sketch -->
    <title>Group 15</title>
    <desc>Created with Sketch.</desc>
    <defs>
        <path d="M7.0041625,0.306782609 L6.16430625,0.751826087 C6.0953125,0.787304348 6.05121875,0.858782609 6.05018125,0.938086957 L6.02735625,1.62886957 C4.4571,1.836 3.006675,2.75530435 1.9266375,4.23391304 C0.81080625,5.76626087 0.19453125,7.7613913 0.19453125,9.852 C0.19453125,10.2313043 0.21528125,10.610087 0.255225,10.982087 C0.26611875,11.0926957 0.35845625,11.1766957 0.46843125,11.1766957 L1.68126875,11.1766957 C1.7419625,11.1766957 1.8000625,11.1490435 1.84000625,11.102087 C1.88254375,11.054087 1.8996625,10.992 1.8924,10.9293913 C1.83896875,10.524 1.8125125,10.1086957 1.8125125,9.69547826 C1.8125125,7.97634783 2.2742,6.32973913 3.10990625,5.06504348 C3.8729875,3.91147826 4.8855875,3.16173913 5.98585625,2.93426087 L5.75449375,10.293913 C5.75345625,10.370087 5.78925,10.4436522 5.85409375,10.4853913 C5.9179,10.5266087 5.99675,10.5302609 6.06470625,10.4953043 L7.3953,9.80973913 C7.46948125,9.77269565 7.51565,9.69547826 7.513575,9.61043478 L7.3693625,2.91913043 C8.48415625,3.12991304 9.5149125,3.8733913 10.292,5.03373913 C11.1411938,6.30521739 11.6080687,7.95965217 11.6080687,9.69547826 C11.6080687,10.1086957 11.58265,10.524 11.5302563,10.9293913 C11.5204,10.992 11.5395938,11.054087 11.5795375,11.102087 C11.62,11.1490435 11.6796563,11.1766957 11.7419062,11.1766957 L12.954225,11.1766957 C13.0626438,11.1766957 13.1549812,11.0926957 13.16795,10.982087 C13.2063375,10.610087 13.2270875,10.2313043 13.2270875,9.852 C13.2270875,7.74782609 12.605625,5.74434783 11.4752688,4.20886957 C10.385375,2.72713043 8.9235375,1.81356522 7.34186875,1.62052174 L7.3174875,0.496695652 C7.31489375,0.421565217 7.27546875,0.352695652 7.2116625,0.313043478 C7.1784625,0.293217391 7.140075,0.283826087 7.10116875,0.283826087 C7.06745,0.283826087 7.03425,0.291130435 7.0041625,0.306782609 Z" id="path-1"/>
        <path d="M7.0041625,0.306782609 L6.16430625,0.751826087 C6.0953125,0.787304348 6.05121875,0.858782609 6.05018125,0.938086957 L6.02735625,1.62886957 C4.4571,1.836 3.006675,2.75530435 1.9266375,4.23391304 C0.81080625,5.76626087 0.19453125,7.7613913 0.19453125,9.852 C0.19453125,10.2313043 0.21528125,10.610087 0.255225,10.982087 C0.26611875,11.0926957 0.35845625,11.1766957 0.46843125,11.1766957 L1.68126875,11.1766957 C1.7419625,11.1766957 1.8000625,11.1490435 1.84000625,11.102087 C1.88254375,11.054087 1.8996625,10.992 1.8924,10.9293913 C1.83896875,10.524 1.8125125,10.1086957 1.8125125,9.69547826 C1.8125125,7.97634783 2.2742,6.32973913 3.10990625,5.06504348 C3.8729875,3.91147826 4.8855875,3.16173913 5.98585625,2.93426087 L5.75449375,10.293913 C5.75345625,10.370087 5.78925,10.4436522 5.85409375,10.4853913 C5.9179,10.5266087 5.99675,10.5302609 6.06470625,10.4953043 L7.3953,9.80973913 C7.46948125,9.77269565 7.51565,9.69547826 7.513575,9.61043478 L7.3693625,2.91913043 C8.48415625,3.12991304 9.5149125,3.8733913 10.292,5.03373913 C11.1411938,6.30521739 11.6091063,7.95965217 11.6091063,9.69547826 C11.6091063,10.1086957 11.58265,10.524 11.5302563,10.9293913 C11.5204,10.992 11.5395938,11.054087 11.5795375,11.102087 C11.62,11.1490435 11.6796563,11.1766957 11.7419062,11.1766957 L12.954225,11.1766957 C13.0626438,11.1766957 13.1549812,11.0926957 13.16795,10.982087 C13.2063375,10.610087 13.2270875,10.2313043 13.2270875,9.852 C13.2270875,7.74782609 12.605625,5.74434783 11.4752688,4.20886957 C10.385375,2.72713043 8.9235375,1.81356522 7.34186875,1.62052174 L7.3174875,0.496695652 C7.31489375,0.421565217 7.27546875,0.352695652 7.2116625,0.313043478 C7.1784625,0.293217391 7.140075,0.283826087 7.10116875,0.283826087 C7.06745,0.283826087 7.03425,0.291130435 7.0041625,0.306782609 Z M0.6225,9.852 C0.6225,7.85530435 1.20816875,5.95095652 2.27160625,4.49478261 C3.31948125,3.05791304 4.73566875,2.1866087 6.25560625,2.04052174 C6.3609125,2.03165217 6.4439125,1.94034783 6.44754375,1.83130435 L6.47348125,1.07947826 L6.89781875,0.856173913 L6.91753125,1.82347826 C6.920125,1.93565217 7.0041625,2.028 7.11361875,2.03686957 C10.3028938,2.30608696 12.7991188,5.73808696 12.7991188,9.852 C12.7991188,10.1483478 12.7866688,10.4467826 12.7607312,10.7394783 L11.9826062,10.7394783 C12.0199563,10.3951304 12.037075,10.0445217 12.037075,9.69547826 C12.037075,7.87408696 11.5421875,6.13095652 10.6437125,4.788 C9.74005,3.43617391 8.5075,2.60504348 7.173275,2.44904348 C7.11258125,2.44121739 7.0518875,2.46104348 7.0041625,2.50382609 C6.95955,2.54765217 6.9336125,2.60608696 6.93516875,2.67182609 L7.08145625,9.48417391 L6.1928375,9.93965217 L6.422125,2.68173913 C6.42471875,2.616 6.39878125,2.55443478 6.3526125,2.51113043 C6.30436875,2.46886957 6.24211875,2.44904348 6.17986875,2.4573913 C4.86120625,2.63582609 3.64629375,3.47373913 2.7566375,4.82086957 C1.87113125,6.15756522 1.38558125,7.88869565 1.38558125,9.69547826 C1.38558125,10.0445217 1.4027,10.3951304 1.4390125,10.7394783 L0.6608875,10.7394783 C0.6359875,10.4467826 0.6225,10.1483478 0.6225,9.852 Z" id="path-3"/>
    </defs>
    <g id="Page-1" stroke="none" stroke-width="1" fill="none" fill-rule="evenodd">
        <g id="Mainpage-Copy-22" transform="translate(-1179.000000, -1424.000000)">
            <g id="Group-21" transform="translate(135.000000, 1350.000000)">
                <g id="Group-19" transform="translate(1018.000000, 74.000000)">
                    <g id="Group-15" transform="translate(27.000000, 0.000000)">
                        <polygon id="Path-2" fill="#8BC5FF" fill-rule="nonzero" points="75 18.5 76.5 18 79.5 19.5 81 21 81 23 79 27 72.5 38 60 59.5 56 63 53 66 51 67.5 53.5 56 71 24.5"/>
                        <g id="Group-40">
                            <g id="Group-33" transform="translate(0.000000, 0.302609)" stroke="#00276B" stroke-linecap="round" stroke-width="1.039896">
                                <path d="M47.2719238,74.1404348 L9.28282375,74.1404348 L0.07916125,74.1404348 L0.07916125,75.3597391 C0.07916125,79.7277391 4.04344875,83.2703478 8.93111125,83.2703478 L55.8935487,83.2703478" id="Stroke-1"/>
                                <path d="M9.28261625,60.7357565 L9.28261625,8.4021913 C9.28261625,4.03158261 12.8049288,0.491582609 17.1479038,0.491582609 L73.2787288,0.491582609" id="Stroke-3"/>
                                <path d="M82.672565,8.40208696 L82.672565,10.4269565 L65.4287963,10.4269565 L65.4287963,8.38695652 C65.4287963,4.02678261 68.9428088,0.491478261 73.27904,0.491478261 L74.8072775,0.491478261 C79.1507713,0.491478261 82.672565,4.03147826 82.672565,8.40208696 Z" id="Stroke-5" stroke-linejoin="round"/>
                                <path d="M65.4286925,22.3369565 L65.4286925,10.4272174" id="Stroke-7"/>
                                <path d="M64.5157962,73.3349217 L64.5157962,75.3749217 C64.5157962,79.7356174 61.0017838,83.2704 56.6655525,83.2704 L55.1367963,83.2704 C50.7938213,83.2704 47.2720275,79.7304 47.2720275,75.3597913 L47.2720275,74.140487" id="Stroke-9"/>
                                <path d="M64.5157962,66.2695304 L64.5157962,73.3349217" id="Stroke-11"/>
                                <path d="M20,32 L54.8112375,32 M20,23 L54.8112375,23" id="Stroke-19"/>
                                <path d="M20,23 L54.8112375,23" id="Stroke-19-Copy"/>
                                <path d="M20,14 L34.5,14" id="Stroke-19-Copy-2"/>
                                <path d="M19.6598987,41.9462609 L47.2719238,41.9462609" id="Stroke-21"/>
                                <path d="M33.4657556,51.4567826 L46.6352619,51.4567826" id="Stroke-23"/>
                                <path d="M33.4657556,60.7357565 L46.6352619,60.7357565" id="Stroke-25"/>
                                <path d="M60.0111788,59.5350783 L50.8728788,67.4477739 L53.0972788,55.5202957 L74.0765663,18.9729913 C74.774285,17.7583826 76.3191225,17.3420348 77.5272913,18.0437739 L80.0660538,19.517687 C81.2737038,20.2194261 81.6876663,21.7731652 80.9904663,22.9877739 L60.0111788,59.5350783 Z" id="Stroke-27" stroke-linejoin="round"/>
                                <path d="M71.8188106,22.9068522 L81.3280169,28.5280696 C82.4739356,29.205287 82.8785606,30.6745043 82.2430919,31.8478957 L76.6675669,42.1459826" id="Stroke-29"/>
                                <path d="M53.0972269,55.5204 L60.0111269,59.5351826" id="Stroke-31"/>
                            </g>
                            <g id="Group-36" transform="translate(14.525000, 48.824348)">
                                <mask id="mask-2" fill="white">
                                    <use xlink:href="#path-1"/>
                                </mask>
                                <g id="Clip-35"/>
                                <polygon id="Fill-34" fill="#8BC5FF" mask="url(#mask-2)" points="-6.31163125 17.733913 19.7316938 17.733913 19.7316938 -6.27391304 -6.31163125 -6.27391304"/>
                            </g>
                            <g id="Group-39" transform="translate(14.525000, 48.824348)">
                                <mask id="mask-4" fill="white">
                                    <use xlink:href="#path-3"/>
                                </mask>
                                <g id="Clip-38"/>
                                <polygon id="Fill-37" fill="#00276B" mask="url(#mask-4)" points="-6.31163125 17.733913 19.7316938 17.733913 19.7316938 -6.27391304 -6.31163125 -6.27391304"/>
                            </g>
                        </g>
                    </g>
                </g>
            </g>
        </g>
    </g>
</svg>