<?xml version="1.0" encoding="UTF-8" standalone="no"?>
<svg width="85px" height="85px" viewBox="0 0 85 85" version="1.1" xmlns="http://www.w3.org/2000/svg" xmlns:xlink="http://www.w3.org/1999/xlink">
    <!-- Generator: Sketch 49.3 (51167) - http://www.bohemiancoding.com/sketch -->
    <title>Group</title>
    <desc>Created with Sketch.</desc>
    <defs>
        <polygon id="path-1" points="0.105463497 0.099262226 10.2269864 0.099262226 10.2269864 10.1526981 0.105463497 10.1526981"></polygon>
        <polygon id="path-3" points="0.0851154499 0.143195616 51.9091392 0.143195616 51.9091392 29.8432707 0.0851154499 29.8432707"></polygon>
        <polygon id="path-5" points="0.105434635 0.0992478921 10.2269864 0.0992478921 10.2269864 10.1526838 0.105434635 10.1526838"></polygon>
        <polygon id="path-7" points="0 0.0257436762 25.6904202 0.0257436762 25.6904202 38.9881383 0 38.9881383"></polygon>
    </defs>
    <g id="Page-1" stroke="none" stroke-width="1" fill="none" fill-rule="evenodd">
        <g id="Mainpage-Copy-6" transform="translate(-578.000000, -1685.000000)">
            <g id="Group-26" transform="translate(559.000000, 1685.000000)">
                <g id="Group" transform="translate(19.000000, 0.000000)">
                    <path d="M79.4064805,34.0704368 C79.6041885,34.2652344 79.6041885,34.5834469 79.4064805,34.7798212 L69.5858778,44.5341804 L60.8435772,53.217511 L56.9585433,57.076339 C56.9370407,57.0976965 56.9125076,57.1163305 56.8879745,57.1335312 C56.8807589,57.1379747 56.873399,57.1422749 56.8663277,57.1480084 C56.8461239,57.1593322 56.8257759,57.1693659 56.8057165,57.179543 C56.7985008,57.1822664 56.7927284,57.1852766 56.7855127,57.188 C56.7609796,57.1981771 56.7364465,57.2052007 56.710326,57.2109342 L48.7790611,58.9598128 C48.742983,58.9682698 48.7054618,58.97257 48.6693837,58.97257 C48.5322869,58.97257 48.3995195,58.9168111 48.3028302,58.8164739 C48.1801647,58.6889022 48.1354278,58.5067184 48.1830509,58.3362884 L50.2884244,50.8009595 C50.2900119,50.7937926 50.2943413,50.7894924 50.2956401,50.7823255 C50.3044431,50.7549477 50.3174312,50.7278567 50.3304194,50.7019123 C50.3361919,50.6920219 50.3405212,50.6819882 50.3448506,50.6732445 C50.3664975,50.6404199 50.3895874,50.6088853 50.4184499,50.5802175 L72.8662428,28.2838432 C73.0639508,28.0874688 73.3828812,28.0874688 73.5805891,28.2838432 L74.1477368,28.8471653 L76.443747,31.127688 C76.4450458,31.127688 76.4450458,31.127688 76.4450458,31.1289781 L79.4064805,34.0704368 Z" id="Fill-1" fill="#8BC5FF"></path>
                    <g id="Group-5" transform="translate(74.753820, 22.647698)">
                        <mask id="mask-2" fill="white">
                            <use xlink:href="#path-1"></use>
                        </mask>
                        <g id="Clip-4"></g>
                        <path d="M10.0787487,6.74266442 L6.79275552,10.005059 C6.69462309,10.1039629 6.56618506,10.1526981 6.4363039,10.1526981 C6.30642275,10.1526981 6.17812903,10.1039629 6.07840917,10.005059 L0.252517827,4.21846543 C0.158714771,4.12529511 0.105463497,3.99772344 0.105463497,3.86441821 C0.105463497,3.73111298 0.158714771,3.60354132 0.252517827,3.50893761 L3.53851104,0.246543002 C3.73621902,0.0501686341 4.05514941,0.0501686341 4.25285739,0.246543002 L10.0787487,6.03313659 C10.2764567,6.22951096 10.2764567,6.54629005 10.0787487,6.74266442" id="Fill-3" fill="#58AAF4" mask="url(#mask-2)"></path>
                    </g>
                    <path d="M69.8039338,46.3946484 L69.8039338,55.3404325 C69.7317776,55.5067057 69.6596214,55.6686788 69.5858778,55.8263516 C69.3305891,56.3782066 69.0650543,56.8755927 68.793747,57.3142099 L68.793747,46.3946484 C68.793747,46.1180042 69.0188744,45.8929621 69.2988404,45.8929621 C69.5773633,45.8929621 69.8039338,46.1180042 69.8039338,46.3946484" id="Fill-6" fill="#50BCFF"></path>
                    <path d="M60.450961,52.1870042 L73.3930407,39.3323668 C73.3308421,39.8770548 73.2644584,40.4160093 73.1966316,40.9477968 L69.5859355,44.5341374 L60.843635,53.217468 C60.7136095,52.8879317 60.5822852,52.5453516 60.450961,52.1870042" id="Fill-8" fill="#50BCFF"></path>
                    <path d="M69.5859211,37.3700422 L73.9557003,32.9365683 C73.9226528,33.4540219 73.8880178,33.9671754 73.8504966,34.4774621 L69.5859211,38.8064418 L66.4891214,41.9497218 C66.3895458,42.050059 66.2580772,42.1002277 66.126753,42.1002277 C65.9997581,42.1002277 65.8729075,42.0529258 65.774775,41.9568887 C65.5756239,41.7633811 65.5712946,41.446602 65.765972,41.2473609 L69.5859211,37.3700422 Z" id="Fill-10" fill="#50BCFF"></path>
                    <g id="Group-14" transform="translate(17.894737, 0.000143)">
                        <mask id="mask-4" fill="white">
                            <use xlink:href="#path-3"></use>
                        </mask>
                        <g id="Clip-13"></g>
                        <path d="M40.4449626,18.6956568 C40.4449626,19.8366349 39.5112615,20.7641813 38.3625348,20.7641813 L13.6273905,20.7641813 C12.4802513,20.7641813 11.5478489,19.8382116 11.5478489,18.699957 L11.5478489,12.2998727 C11.5478489,11.1588946 12.4815501,10.2314916 13.6302767,10.2314916 L20.2181375,10.2314916 C20.5978234,10.2314916 20.945472,10.0408508 21.1475093,9.72134823 C21.3495467,9.40456914 21.3726367,9.01311046 21.2095637,8.67640725 C21.0379762,8.32221669 20.9093939,7.95397892 20.8242496,7.57542074 C20.7376621,7.19843929 20.6945127,6.80855734 20.6945127,6.41308516 C20.6945127,5.00836341 21.2514143,3.68391147 22.2646316,2.68326223 C23.2703447,1.69135666 24.5936893,1.14666863 25.9964058,1.14666863 L26.0310407,1.14666863 C28.9360492,1.1653027 31.2984431,3.52767201 31.2984431,6.41308516 C31.2984431,7.20417285 31.1267114,7.96386931 30.7861341,8.67196374 C30.621618,9.01167707 30.644708,9.40456914 30.8467453,9.72407167 C31.048927,10.0422841 31.3967199,10.2314916 31.774674,10.2314916 L38.3625348,10.2314916 C39.5112615,10.2314916 40.4449626,11.1588946 40.4449626,12.2998727 L40.4449626,18.6956568 Z M51.6912275,16.1185658 C51.5137233,15.681382 51.2323141,15.2956568 50.8773056,14.9932116 C50.3563379,14.5461374 49.6780696,14.2750835 48.9378913,14.2750835 L41.4551494,14.2750835 L41.4551494,12.2998727 C41.4551494,10.6057496 40.0684516,9.22811889 38.3625348,9.22811889 L31.774674,9.22811889 C31.7429253,9.22811889 31.7183922,9.21521838 31.7025178,9.18798398 C31.6853447,9.16218297 31.6837572,9.13351518 31.6967453,9.10484739 C32.1037063,8.26058094 32.3086299,7.35467875 32.3086299,6.41308516 C32.3086299,2.97710708 29.4959813,0.164940135 26.0368132,0.143295953 C24.3555739,0.130395447 22.7580357,0.78258769 21.5530272,1.97230101 C20.3480187,3.16058094 19.684326,4.73874283 19.684326,6.41308516 C19.684326,7.35754553 19.8905484,8.26359106 20.2976537,9.10914755 C20.3032818,9.11918128 20.3177131,9.14928246 20.29318,9.18655059 C20.281635,9.20518465 20.258545,9.22811889 20.2181375,9.22811889 L13.6302767,9.22811889 C11.9245042,9.22811889 10.5376621,10.6057496 10.5376621,12.2998727 L10.5376621,14.2750835 L3.05506452,14.2750835 C2.31474194,14.2750835 1.63647368,14.5461374 1.11565025,14.9932116 C1.10829032,14.9975118 1.10251783,15.0032454 1.09530221,15.0104123 C0.476202037,15.5509435 0.0851154499,16.3434646 0.0851154499,17.2249992 L0.0851154499,25.7364663 C0.0851154499,26.0132538 0.310387097,26.2381526 0.590208829,26.2381526 C0.868731749,26.2381526 1.09530221,26.0132538 1.09530221,25.7364663 L1.09530221,17.2249992 C1.09530221,16.1513904 1.97416469,15.2784562 3.05506452,15.2784562 L10.5376621,15.2784562 L10.5376621,18.699957 C10.5376621,20.3913567 11.9230611,21.767554 13.6273905,21.767554 L38.3625348,21.767554 C40.0684516,21.767554 41.4551494,20.3899233 41.4551494,18.6956568 L41.4551494,15.2784562 L48.9378913,15.2784562 C50.0186469,15.2784562 50.8989525,16.1513904 50.8989525,17.2249992 L50.8989525,29.3415843 C50.8989525,29.6180852 51.1240798,29.8432707 51.4040458,29.8432707 C51.510837,29.8432707 51.6104126,29.8101594 51.6912275,29.7529671 C51.8225518,29.6626636 51.9091392,29.5120143 51.9091392,29.3415843 L51.9091392,17.2249992 C51.9091392,16.8338272 51.8326537,16.4595691 51.6912275,16.1185658 Z" id="Fill-12" fill="#00276B" mask="url(#mask-4)"></path>
                    </g>
                    <path d="M69.8039338,46.3946484 L69.8039338,75.5641256 C69.8039338,77.1910228 68.4704873,78.5140413 66.8325416,78.5140413 L21.6295705,78.5140413 C21.3494601,78.5140413 21.1244771,78.2905759 21.1244771,78.012355 C21.1244771,77.7357108 21.3494601,77.5106686 21.6295705,77.5106686 L66.8325416,77.5106686 C67.9132971,77.5106686 68.793747,76.6377344 68.793747,75.5641256 L68.793747,46.3946484 C68.793747,46.1180042 69.0188744,45.8929621 69.2988404,45.8929621 C69.5773633,45.8929621 69.8039338,46.1180042 69.8039338,46.3946484" id="Fill-15" fill="#00276B"></path>
                    <path d="M39.9161876,30.3567825 C39.7189126,30.1608381 39.3992606,30.1608381 39.2019856,30.3567825 L32.0821893,37.4284098 L27.9386919,33.3130051 C27.7414168,33.1170607 27.4217649,33.1170607 27.2244898,33.3130051 C27.0272148,33.5088061 27.0272148,33.8265885 27.2244898,34.0223895 L31.7250161,38.4927015 C31.8237258,38.590602 31.9528854,38.6396239 32.0821893,38.6396239 C32.2113489,38.6396239 32.3406528,38.590602 32.4392182,38.4927015 L39.9161876,31.0661669 C40.1134626,30.8703659 40.1134626,30.5525835 39.9161876,30.3567825" id="Fill-17" fill="#00276B"></path>
                    <path d="M39.9161876,45.0294309 C39.7189126,44.8334865 39.3992606,44.8334865 39.2019856,45.0294309 L32.0821893,52.1010582 L27.9386919,47.9856535 C27.7414168,47.7897091 27.4217649,47.7897091 27.2244898,47.9856535 C27.0272148,48.1814545 27.0272148,48.4992369 27.2244898,48.6950379 L31.7250161,53.1653499 C31.8237258,53.2632504 31.9528854,53.3122723 32.0821893,53.3122723 C32.2113489,53.3122723 32.3406528,53.2632504 32.4392182,53.1653499 L39.9161876,45.7388153 C40.1134626,45.5430143 40.1134626,45.2252319 39.9161876,45.0294309" id="Fill-19" fill="#00276B"></path>
                    <path d="M39.2019567,59.7022226 L32.0821604,66.7738499 L27.938663,62.6583019 C27.7413879,62.4623575 27.421736,62.4623575 27.224461,62.6583019 C27.0271859,62.8541029 27.0271859,63.1718853 27.224461,63.3676863 L31.7249873,67.8381417 C31.8198005,67.932172 31.9480942,67.9850641 32.0821604,67.9850641 C32.2162267,67.9850641 32.3445204,67.932172 32.4393336,67.8381417 L39.9161587,60.4116071 C40.1134338,60.2158061 40.1134338,59.8980236 39.9161587,59.7022226 C39.7188837,59.5062782 39.3992317,59.5062782 39.2019567,59.7022226" id="Fill-21" fill="#00276B"></path>
                    <g id="Group-25" transform="translate(74.753820, 22.647698)">
                        <mask id="mask-6" fill="white">
                            <use xlink:href="#path-5"></use>
                        </mask>
                        <g id="Clip-24"></g>
                        <path d="M6.43627504,8.94146965 L1.32473005,3.86440388 L3.8950781,1.31010371 L9.00662309,6.38716948 L6.43627504,8.94146965 Z M10.0787199,6.03312226 L4.25282852,0.246528668 C4.05512054,0.0501543002 3.73619015,0.0501543002 3.53848217,0.246528668 L0.252488964,3.50906661 C0.158685908,3.60352698 0.105434635,3.73109865 0.105434635,3.86440388 C0.105434635,3.99770911 0.158685908,4.12528078 0.252488964,4.2184511 L6.07852462,10.0050447 C6.17810017,10.1039486 6.3065382,10.1526838 6.43627504,10.1526838 C6.5661562,10.1526838 6.69459423,10.1039486 6.79287097,10.0050447 L10.0787199,6.74265008 C10.2764278,6.54627572 10.2764278,6.22949663 10.0787199,6.03312226 Z" id="Fill-23" fill="#00276B" mask="url(#mask-6)"></path>
                    </g>
                    <path d="M60.450961,52.1870042 L56.6007063,56.0112875 L51.4891613,50.9342218 L57.9803328,44.4868356 L73.2226078,29.3473752 L75.3800781,31.4902926 L73.9557148,32.9365826 L69.5859355,37.3700565 L65.7659864,41.2473752 C65.5711647,41.4466164 65.5756384,41.7633954 65.7747895,41.956903 C65.8727776,42.0529401 65.9997725,42.100242 66.1267674,42.100242 C66.2580917,42.100242 66.389416,42.0500734 66.4891358,41.9497361 L69.5859355,38.8063128 L73.850511,34.4774764 L76.0944244,32.1998204 L78.3342971,34.424441 L60.450961,52.1870042 Z M49.3807572,57.8001577 L51.0303922,51.8973162 L55.5935501,56.4298373 L49.3807572,57.8001577 Z M79.4065382,34.0703938 L76.4451036,31.1290784 C76.4451036,31.127645 76.4451036,31.127645 76.4436604,31.127645 L74.1476503,28.8471223 L73.5805025,28.2838002 C73.3827946,28.0874258 73.0638642,28.0874258 72.8661562,28.2838002 L50.4183633,50.5801745 C50.3895008,50.6088423 50.3664109,50.6403769 50.3449083,50.6732015 C50.3404346,50.6819452 50.3361053,50.6919789 50.3303328,50.7020126 C50.3173447,50.7278137 50.3043565,50.7550481 50.2956978,50.7822825 C50.2942547,50.7894494 50.2900696,50.7937496 50.2884822,50.8009165 L48.1829643,58.3362454 C48.1353413,58.5068187 48.1802224,58.6888592 48.3027436,58.8164309 C48.3994329,58.9167681 48.5322003,58.9726703 48.6692971,58.9726703 C48.7053752,58.9726703 48.7428964,58.9683702 48.7789745,58.9597698 L56.7103837,57.2110346 C56.7365042,57.205301 56.7610374,57.1981341 56.7855705,57.1881003 C56.7926418,57.1852336 56.7984143,57.1823668 56.8056299,57.1795 C56.8258336,57.1694663 56.8461817,57.1592892 56.8662411,57.1479654 C56.8734567,57.1422319 56.8808166,57.1379317 56.8880323,57.1336315 C56.9124211,57.1164309 56.9369542,57.0977968 56.958601,57.076296 L60.843635,53.217468 L69.5859355,44.5341374 L79.4065382,34.7799216 C79.6042462,34.5834039 79.6042462,34.2653347 79.4065382,34.0703938 Z" id="Fill-26" fill="#00276B"></path>
                    <path d="M62.0592649,34.9654739 C62.0592649,34.6883997 61.8331273,34.4637875 61.5541715,34.4637875 L44.5678812,34.4637875 C44.2889253,34.4637875 44.0627878,34.6883997 44.0627878,34.9654739 C44.0627878,35.2425481 44.2889253,35.4671602 44.5678812,35.4671602 L61.5541715,35.4671602 C61.8331273,35.4671602 62.0592649,35.2425481 62.0592649,34.9654739" id="Fill-28" fill="#00276B"></path>
                    <path d="M50.5172317,48.6648364 C50.5172317,48.3877622 50.2910942,48.1631501 50.0121384,48.1631501 L44.567809,48.1631501 C44.2889975,48.1631501 44.0627156,48.3877622 44.0627156,48.6648364 C44.0627156,48.9419106 44.2889975,49.1665228 44.567809,49.1665228 L50.0121384,49.1665228 C50.2910942,49.1665228 50.5172317,48.9419106 50.5172317,48.6648364" id="Fill-30" fill="#00276B"></path>
                    <path d="M62.058702,62.36407 C62.058702,62.6407142 61.8334304,62.8657563 61.5536087,62.8657563 L44.5680399,62.8657563 C44.289517,62.8657563 44.0629465,62.6407142 44.0629465,62.36407 C44.0629465,62.0874258 44.289517,61.8623836 44.5680399,61.8623836 L61.5536087,61.8623836 C61.8334304,61.8623836 62.058702,62.0874258 62.058702,62.36407" id="Fill-32" fill="#00276B"></path>
                    <path d="M12.7138642,41.8909528 C9.81044312,41.8909528 7.44804924,39.1875801 7.44804924,35.8664165 C7.44804924,32.545253 9.81044312,29.8433137 12.7138642,29.8433137 C15.6174295,29.8433137 17.9798234,32.545253 17.9798234,35.8664165 C17.9798234,39.1875801 15.6174295,41.8909528 12.7138642,41.8909528 M12.7138642,28.839941 C9.25339728,28.839941 6.43786248,31.9919646 6.43786248,35.8664165 C6.43786248,39.7408685 9.25339728,42.8943255 12.7138642,42.8943255 C16.1744754,42.8943255 18.9900102,39.7408685 18.9900102,35.8664165 C18.9900102,31.9919646 16.1744754,28.839941 12.7138642,28.839941" id="Fill-34" fill="#00276B"></path>
                    <g id="Group-38" transform="translate(0.000000, 45.868609)">
                        <mask id="mask-8" fill="white">
                            <use xlink:href="#path-7"></use>
                        </mask>
                        <g id="Clip-37"></g>
                        <path d="M24.6802334,13.6974132 C24.6802334,16.7777673 22.5113625,19.4741164 19.5471859,20.1979781 L19.5471859,7.95969815 C19.5471859,7.68291062 19.3204711,7.4580118 19.0420925,7.4580118 C19.024775,7.4580118 19.0073132,7.45930185 18.9899958,7.46073524 C18.7361503,7.4866796 18.5369992,7.7001113 18.5369992,7.95969815 L18.5369992,35.343172 C18.5369992,36.7994958 17.3433913,37.9847656 15.8771774,37.9847656 C14.4111078,37.9847656 13.2189431,36.7994958 13.2189431,35.343172 L13.2189431,20.8930287 C13.2189431,20.6165278 12.992517,20.3913423 12.7138497,20.3913423 C12.434028,20.3913423 12.2087564,20.6165278 12.2087564,20.8930287 L12.2087564,35.343172 C12.2087564,36.7994958 11.0154372,37.9847656 9.54907895,37.9847656 C8.08286503,37.9847656 6.88954584,36.7994958 6.88954584,35.343172 L6.88954584,7.95969815 C6.88954584,7.68291062 6.66427419,7.4580118 6.38445246,7.4580118 C6.10592954,7.4580118 5.87935908,7.68291062 5.87935908,7.95969815 L5.87935908,20.1275987 C3.02471562,19.3135767 1.0101146,16.7003642 1.0101146,13.6974132 L1.0101146,7.72304553 C1.0101146,7.3159629 1.0461927,6.918914 1.11705008,6.53204216 C1.68405348,3.40710961 4.44474958,1.02911636 7.75238964,1.02911636 L17.940989,1.02911636 C18.2974406,1.02911636 18.6479754,1.0564941 18.9899958,1.11081956 C19.725989,1.22549073 20.4215747,1.45769983 21.0579924,1.79038954 C23.2098345,2.90829005 24.6802334,5.14867791 24.6802334,7.72304553 L24.6802334,13.6974132 Z M22.3381876,1.38746374 C21.3610484,0.716637437 20.2211248,0.26239629 18.9899958,0.0959797639 C18.6465323,0.0501112985 18.2959975,0.0257436762 17.940989,0.0257436762 L7.75238964,0.0257436762 C3.91079372,0.0257436762 0.71283107,2.81511973 0.105420204,6.46037268 C0.0360059423,6.87175548 -7.21561969e-05,7.29302867 -7.21561969e-05,7.72304553 L-7.21561969e-05,13.6974132 C-7.21561969e-05,17.246629 2.44890917,20.322683 5.87935908,21.165516 L5.87935908,35.343172 C5.87935908,37.3526408 7.5259635,38.9881383 9.54907895,38.9881383 C10.8955136,38.9881383 12.0745458,38.2629865 12.7138497,37.1849342 C13.3517105,38.2629865 14.5307428,38.9881383 15.8771774,38.9881383 C17.9005815,38.9881383 19.5471859,37.3526408 19.5471859,35.343172 L19.5471859,21.2257184 C23.0783659,20.4832226 25.6904202,17.3224553 25.6904202,13.6974132 L25.6904202,7.72304553 C25.6904202,5.100086 24.3628905,2.77928499 22.3381876,1.38746374 Z" id="Fill-36" fill="#00276B" mask="url(#mask-8)"></path>
                    </g>
                </g>
            </g>
        </g>
    </g>
</svg>