<?xml version="1.0" encoding="UTF-8"?>
<svg width="19px" height="12px" viewBox="0 0 19 12" version="1.1" xmlns="http://www.w3.org/2000/svg" xmlns:xlink="http://www.w3.org/1999/xlink">
    <!-- Generator: Sketch 52.2 (67145) - http://www.bohemiancoding.com/sketch -->
    <title>Group Copy 4</title>
    <desc>Created with Sketch.</desc>
    <g id="Nazirlik" stroke="none" stroke-width="1" fill="none" fill-rule="evenodd">
        <g id="1.Ümumi-məlumat-" transform="translate(-501.000000, -1218.000000)" fill="#5D8AB9">
            <g id="Group" transform="translate(135.000000, 1210.000000)">
                <g id="Group-Copy-4" transform="translate(375.500000, 14.000000) rotate(-180.000000) translate(-375.500000, -14.000000) translate(366.000000, 8.000000)">
                    <path d="M18.5699043,5.3902953 L13.411305,0.235932886 C13.0963886,-0.0786442953 12.5860097,-0.0786442953 12.2714964,0.235932886 C11.9566606,0.550510067 11.9566606,1.06014765 12.2714964,1.37480537 L16.0538781,5.15432215 L0.881274149,5.11405369 C0.436103149,5.11405369 0.0752430071,5.47461745 0.0752430071,5.91942282 C0.0752430071,6.36430872 0.436103149,6.72479195 0.881274149,6.72479195 L16.0538781,6.7650604 L12.2714964,10.5446577 C11.9566606,10.8592349 11.9566606,11.3688725 12.2714964,11.6835302 C12.4289143,11.8408188 12.6351776,11.9194228 12.8413604,11.9194228 C13.0476238,11.9194228 13.2542095,11.8408188 13.411305,11.6835302 L18.5699043,6.52916779 C18.8847401,6.21451007 18.8847401,5.70487248 18.5699043,5.3902953 Z" id="arrow-pointing-to-right-copy" transform="translate(9.440637, 5.959711) rotate(-180.000000) translate(-9.440637, -5.959711) "></path>
                </g>
            </g>
        </g>
    </g>
</svg>