<?xml version="1.0" encoding="UTF-8"?>
<svg width="11px" height="10px" viewBox="0 0 11 10" version="1.1" xmlns="http://www.w3.org/2000/svg" xmlns:xlink="http://www.w3.org/1999/xlink">
    <!-- Generator: Sketch 52.2 (67145) - http://www.bohemiancoding.com/sketch -->
    <title>Search icon</title>
    <desc>Created with Sketch.</desc>
    <g id="Mainpage" stroke="none" stroke-width="1" fill="none" fill-rule="evenodd">
        <g id="Mobile" transform="translate(-268.000000, -12.000000)" fill="#000000">
            <g id="Search-icon" transform="translate(268.000000, 12.000000)">
                <path d="M10.3660787,9.91928975 C10.3500592,9.91928975 10.3340891,9.91857264 10.3182175,9.91722805 C10.3023459,9.91588346 10.2865236,9.91386657 10.2708985,9.91113257 C10.2552733,9.90844339 10.2397961,9.9050371 10.224516,9.90095851 C10.2092359,9.89687993 10.1942022,9.89212904 10.1793657,9.88666105 C10.1645293,9.88119305 10.1499392,9.87509758 10.1356942,9.86828499 C10.1213999,9.8614724 10.1074014,9.85398752 10.0937972,9.84578553 C10.080193,9.83762835 10.0669338,9.82870924 10.0540196,9.81920748 C10.0411548,9.80966089 10.0286843,9.79939719 10.0167066,9.7884612 L9.66940479,9.47270677 L9.32215224,9.15690753 L8.97489969,8.84115311 L8.62759785,8.52539869 L8.28034531,8.20959944 L7.93309276,7.89388984 L7.58584021,7.5780906 L7.23858766,7.26233618 C7.21443525,7.24037455 7.19328956,7.21670978 7.17515061,7.19183487 C7.15706094,7.16691515 7.14192872,7.14078529 7.1299018,7.11375904 C7.11782559,7.08677761 7.10875612,7.05894461 7.10269337,7.03066342 C7.09667991,7.00242704 7.09362389,6.97374246 7.09362389,6.94510271 C7.09362389,6.91641813 7.09667991,6.88773356 7.10269337,6.85949718 C7.10875612,6.83130562 7.11782559,6.80347262 7.1299018,6.77653601 C7.14192872,6.74955458 7.15706094,6.72346955 7.17515061,6.69863946 C7.19328956,6.67380938 7.21443525,6.65023424 7.23858766,6.62836225 C7.26264149,6.60653508 7.28856837,6.58735227 7.31597396,6.5709931 C7.34337956,6.55458911 7.37221458,6.54091912 7.40198613,6.52998312 C7.43175767,6.51904713 7.46251503,6.51084513 7.49376529,6.50537714 C7.52496627,6.49990914 7.55666015,6.49717514 7.58835403,6.49717514 C7.6200972,6.49717514 7.65179108,6.49990914 7.68304135,6.50537714 C7.71424232,6.51084513 7.74499968,6.51904713 7.77482052,6.52998312 C7.80459206,6.54091912 7.83342708,6.55458911 7.86083268,6.5709931 C7.88823828,6.58735227 7.91416515,6.60653508 7.93826827,6.62836225 L8.28507721,6.94411667 L8.63193543,7.25991592 L8.97879365,7.57567034 L9.32565188,7.89146958 L9.6725101,8.207224 L10.0193683,8.52297843 L10.3662265,8.83877767 L10.7130848,9.15453209 C10.7372372,9.17640408 10.7583336,9.19993439 10.7764725,9.22476448 C10.7945622,9.24959456 10.8096944,9.27572442 10.8217213,9.30266103 C10.8337975,9.32959764 10.842867,9.35743064 10.8488805,9.38566702 C10.8549432,9.4139034 10.85795,9.44249833 10.85795,9.47118291 C10.85795,9.49986748 10.8549432,9.52850724 10.8488805,9.55678843 C10.842867,9.58502481 10.8337975,9.61290263 10.8217213,9.63988406 C10.8096944,9.66686549 10.7945622,9.69304017 10.7764725,9.71795989 C10.7583336,9.74283479 10.7372372,9.76649957 10.7130848,9.7884612 C10.7010086,9.79939719 10.688538,9.80966089 10.6756732,9.81920748 C10.6628083,9.82870924 10.6495491,9.83762835 10.6359449,9.84578553 C10.6223407,9.85398752 10.6083915,9.8614724 10.5941465,9.86828499 C10.5799508,9.87509758 10.56541,9.88119305 10.5506721,9.88666105 C10.5359342,9.89212904 10.5209499,9.89687993 10.5057683,9.90095851 C10.4906361,9.9050371 10.4753067,9.90844339 10.4598295,9.91113257 C10.4444015,9.91386657 10.4288257,9.91588346 10.4132005,9.91722805 C10.3975261,9.91857264 10.3818024,9.91928975 10.3660787,9.91928975" id="Fill-6"></path>
                <path d="M4.50603356,0.953270757 C4.26411664,0.953270757 4.02790938,0.975653053 3.79971484,1.01827977 C3.5715203,1.06090648 3.35133848,1.12373398 3.14156839,1.20466801 C2.93175032,1.28555841 2.73239197,1.38455535 2.54574842,1.49947732 C2.35910486,1.61431202 2.18522407,1.74511538 2.0264571,1.88970589 C1.86769012,2.03420913 1.72408494,2.19254315 1.59789662,2.36243918 C1.47175628,2.53229157 1.36308079,2.71379323 1.27422118,2.90471902 C1.18540956,3.09560117 1.11641382,3.29590745 1.06963297,3.50349998 C1.02285213,3.7110925 0.998286196,3.92597127 0.998286196,4.14591114 C0.998286196,4.36589465 1.02285213,4.58072979 1.06963297,4.78819142 C1.11641382,4.99569668 1.18540956,5.1959157 1.27422118,5.38666697 C1.36308079,5.57741823 1.47175628,5.758789 1.59789662,5.92846688 C1.72408494,6.09818838 1.86769012,6.25630425 2.0264571,6.40067661 C2.18522407,6.54504896 2.35910486,6.67563417 2.54574842,6.79038161 C2.73239197,6.90512906 2.93175032,7.00395148 3.14156839,7.08471099 C3.35133848,7.16551413 3.5715203,7.22821074 3.79971484,7.27079382 C4.02790938,7.31328964 4.26411664,7.33562831 4.50603356,7.33562831 C4.74785452,7.33562831 4.98396582,7.31328964 5.21211238,7.27079382 C5.44021096,7.22821074 5.6603448,7.16551413 5.87006691,7.08471099 C6.07978901,7.00395148 6.27914736,6.90512906 6.46569496,6.79038161 C6.65229054,6.67563417 6.82617132,6.54504896 6.98489032,6.40067661 C7.14365729,6.25630425 7.28726248,6.09818838 7.41340282,5.92846688 C7.53954315,5.758789 7.64821864,5.57741823 7.73703027,5.38666697 C7.82588988,5.1959157 7.89488562,4.99569668 7.94161848,4.78819142 C7.9884473,4.58072979 8.01301324,4.36589465 8.01301324,4.14591114 C8.01301324,3.92597127 7.9884473,3.7110925 7.94161848,3.50349998 C7.89488562,3.29590745 7.82588988,3.09560117 7.73703027,2.90471902 C7.64821864,2.71379323 7.53954315,2.53229157 7.41340282,2.36243918 C7.28726248,2.19254315 7.14365729,2.03420913 6.98489032,1.88970589 C6.82617132,1.74511538 6.65229054,1.61431202 6.46569496,1.49947732 C6.27914736,1.38455535 6.07978901,1.28555841 5.87006691,1.20466801 C5.6603448,1.12373398 5.44021096,1.06090648 5.21211238,1.01827977 C4.98396582,0.975653053 4.74785452,0.953270757 4.50603356,0.953270757 M4.50603356,8.20823245 C4.1980477,8.20823245 3.89716293,8.17978555 3.60644999,8.1255532 C3.31573706,8.07136449 3.03524394,7.99139032 2.76794541,7.88851029 C2.50064689,7.78558663 2.24654296,7.65966985 2.00865639,7.51350866 C1.77076982,7.3673911 1.5491006,7.20094186 1.34667151,7.01704054 C1.1442904,6.83318285 0.961149406,6.63178581 0.800271295,6.41564177 C0.639393184,6.19949772 0.500777956,5.96856304 0.387496351,5.72567367 C0.274166767,5.48269705 0.186170806,5.22780938 0.126531232,4.96358485 C0.0668436781,4.69936032 0.0355125101,4.42592981 0.0355125101,4.14591114 C0.0355125101,3.86554344 0.0668436781,3.59176389 0.126531232,3.32727757 C0.186170806,3.06279126 0.274166767,2.80759818 0.387496351,2.56449067 C0.500777956,2.32133952 0.639393184,2.09031758 0.800271295,1.87399901 C0.961149406,1.65772408 1.1442904,1.45615252 1.34667151,1.27220757 C1.5491006,1.08821899 1.77076982,0.921726118 2.00865639,0.775564925 C2.24654296,0.629360102 2.50064689,0.503399694 2.76794541,0.400476036 C3.03524394,0.297552378 3.31573706,0.217578209 3.60644999,0.163389492 C3.89716293,0.109157145 4.1980477,0.0807102502 4.50603356,0.0807102502 C4.81392346,0.0807102502 5.11476025,0.109157145 5.40537722,0.163389492 C5.69594622,0.217578209 5.97643934,0.297552378 6.2436419,0.400476036 C6.51094043,0.503399694 6.76499638,0.629360102 7.00283497,0.775564925 C7.24067356,0.921726118 7.46229479,1.08821899 7.6646759,1.27220757 C7.86705702,1.45615252 8.05019801,1.65772408 8.21102814,1.87399901 C8.37190625,2.09031758 8.5104735,2.32133952 8.62380308,2.56449067 C8.73708469,2.80759818 8.82508065,3.06279126 8.8847682,3.32727757 C8.94440778,3.59176389 8.97578692,3.86554344 8.97578692,4.14591114 C8.97578692,4.42592981 8.94440778,4.69936032 8.8847682,4.96358485 C8.82508065,5.22780938 8.73708469,5.48269705 8.62380308,5.72567367 C8.5104735,5.96856304 8.37190625,6.19949772 8.21102814,6.41564177 C8.05019801,6.63178581 7.86705702,6.83318285 7.6646759,7.01704054 C7.46229479,7.20094186 7.24067356,7.3673911 7.00283497,7.51350866 C6.76499638,7.65966985 6.51094043,7.78558663 6.2436419,7.88851029 C5.97643934,7.99139032 5.69594622,8.07136449 5.40537722,8.1255532 C5.11476025,8.17978555 4.81392346,8.20823245 4.50603356,8.20823245" id="Fill-8"></path>
            </g>
        </g>
    </g>
</svg>