<?xml version="1.0" encoding="UTF-8" standalone="no"?>
<svg width="26px" height="12px" viewBox="0 0 26 12" version="1.1" xmlns="http://www.w3.org/2000/svg" xmlns:xlink="http://www.w3.org/1999/xlink">
    <!-- Generator: Sketch 49.3 (51167) - http://www.bohemiancoding.com/sketch -->
    <title>Group Copy 3</title>
    <desc>Created with Sketch.</desc>
    <defs></defs>
    <g id="Page-1" stroke="none" stroke-width="1" fill="none" fill-rule="evenodd" opacity="0.515234375">
        <g id="Mainpage-Copy-6" transform="translate(-1232.000000, -881.000000)" fill="#6F6F6F">
            <g id="Group-15-Copy" transform="translate(1232.000000, 881.000000)">
                <g id="Group-Copy-3" transform="translate(13.000000, 6.000000) rotate(-360.000000) translate(-13.000000, -6.000000) ">
                    <path d="M25.2096563,5.3902953 L20.051057,0.235932886 C19.7361406,-0.0786442953 19.2257617,-0.0786442953 18.9112484,0.235932886 C18.5964126,0.550510067 18.5964126,1.06014765 18.9112484,1.37480537 L22.6936301,5.15432215 L0.881274149,5.11405369 C0.436103149,5.11405369 0.0752430071,5.47461745 0.0752430071,5.91942282 C0.0752430071,6.36430872 0.436103149,6.72479195 0.881274149,6.72479195 L22.6936301,6.7650604 L18.9112484,10.5446577 C18.5964126,10.8592349 18.5964126,11.3688725 18.9112484,11.6835302 C19.0686662,11.8408188 19.2749296,11.9194228 19.4811124,11.9194228 C19.6873757,11.9194228 19.8939615,11.8408188 20.051057,11.6835302 L25.2096563,6.52916779 C25.5244921,6.21451007 25.5244921,5.70487248 25.2096563,5.3902953 Z" id="arrow-pointing-to-right-copy" transform="translate(12.760513, 5.959711) rotate(-180.000000) translate(-12.760513, -5.959711) "></path>
                </g>
            </g>
        </g>
    </g>
</svg>