<?xml version="1.0" encoding="UTF-8" standalone="no"?>
<svg width="65px" height="85px" viewBox="0 0 65 85" version="1.1" xmlns="http://www.w3.org/2000/svg" xmlns:xlink="http://www.w3.org/1999/xlink">
    <!-- Generator: Sketch 49.3 (51167) - http://www.bohemiancoding.com/sketch -->
    <title>Group</title>
    <desc>Created with Sketch.</desc>
    <defs>
        <polygon id="path-1" points="0 84.8892555 64.8863229 84.8892555 64.8863229 0 0 0"></polygon>
    </defs>
    <g id="Page-1" stroke="none" stroke-width="1" fill="none" fill-rule="evenodd">
        <g id="Mainpage-Copy-6" transform="translate(-188.000000, -1685.000000)">
            <g id="Group-23" transform="translate(165.000000, 1685.000000)">
                <g id="Group" transform="translate(23.000000, 0.000000)">
                    <path d="M53.3670841,36.1674569 L53.3670841,37.174225 L42.0226895,37.174225 C41.7412657,37.174225 41.5125998,36.9498596 41.5125998,36.6708409 C41.5125998,36.3932606 41.7412657,36.1674569 42.0226895,36.1674569 L53.3670841,36.1674569 Z" id="Fill-1" fill="#78BBFF"></path>
                    <path d="M53.3670841,29.9542301 L53.3670841,30.9609983 L42.0226895,30.9609983 C41.7412657,30.9609983 41.5125998,30.7366328 41.5125998,30.4576142 C41.5125998,30.1800338 41.7412657,29.9542301 42.0226895,29.9542301 L53.3670841,29.9542301 Z" id="Fill-3" fill="#78BBFF"></path>
                    <path d="M50.9068632,42.3806117 L53.3670987,42.3806117 L53.3670987,43.3873799 L50.9068632,43.3873799 C50.6255852,43.3873799 50.3967735,43.1615761 50.3967735,42.8839958 C50.3967735,42.6064154 50.6255852,42.3806117 50.9068632,42.3806117" id="Fill-5" fill="#78BBFF"></path>
                    <path d="M53.3670841,56.2380711 L53.3670841,74.8230118 L52.3469047,74.8230118 L52.3469047,57.2448393 L49.4057276,57.2448393 L49.4057276,68.2344332 C49.4057276,70.5931472 47.4631603,72.5103215 45.0757948,72.5103215 L14.3013554,72.5103215 L14.3013554,71.5035533 L45.0757948,71.5035533 C46.9006043,71.5035533 48.3855482,70.0379865 48.3855482,68.2344332 L48.3855482,57.2448393 L40.786815,57.2448393 L40.7210863,57.3670897 C40.6059518,57.584264 40.3756827,57.7151438 40.129528,57.7036379 C39.8817702,57.6935702 39.6660751,57.5468697 39.5682836,57.321066 L39.2900661,56.6781726 L37.7991469,53.2292724 C37.3867029,53.4378173 36.7221289,53.8175127 35.8928688,54.4402707 C35.4088666,54.8041455 34.8681715,55.2514382 34.2882724,55.7936548 C31.7800886,58.1437394 29.5983621,61.2963621 27.8028464,65.1637902 C27.6963105,65.3924704 27.4705594,65.5334179 27.2213442,65.5334179 C26.84825,65.4873942 26.6296401,65.2745347 26.588833,64.9955161 C26.45038,64.0707276 26.2389114,61.5725042 27.2621513,58.3551607 C28.502398,54.4532149 31.080537,50.8446701 34.9251558,47.6258883 L33.0932052,44.5940778 C32.9664114,44.3826565 32.972241,44.1237733 33.1106939,43.9195431 C33.2475437,43.7167513 33.4867029,43.6103215 33.7328576,43.6448393 L35.8928688,43.9497462 L36.5603576,44.0446701 L36.5603576,28.2211506 L37.580537,28.2211506 L37.580537,44.1884941 L46.157185,45.3966159 C46.3626783,45.4253807 46.5420841,45.5519459 46.6366693,45.7346024 C46.731546,45.9172589 46.7284854,46.1344332 46.6324428,46.3170897 L41.3260527,56.2380711 L53.3670841,56.2380711 Z" id="Fill-7" fill="#8BC5FF"></path>
                    <path d="M42.0227186,29.9542301 L48.7631895,29.9542301 L48.7631895,30.9609983 L42.0227186,30.9609983 C41.7412948,30.9609983 41.5126289,30.7366328 41.5126289,30.4576142 C41.5126289,30.1800338 41.7412948,29.9542301 42.0227186,29.9542301" id="Fill-9" fill="#58AAF4"></path>
                    <path d="M48.7631895,36.1674569 L48.7631895,37.174225 L42.0227186,37.174225 C41.7412948,37.174225 41.5126289,36.9498596 41.5126289,36.6708409 C41.5126289,36.3932606 41.7412948,36.1674569 42.0227186,36.1674569 L48.7631895,36.1674569 Z" id="Fill-11" fill="#58AAF4"></path>
                    <path d="M27.5914652,81.3051751 C26.0611962,81.3051751 24.8165774,80.0769179 24.8165774,78.5667657 C24.8165774,77.0580516 26.0611962,75.8297944 27.5914652,75.8297944 C29.1202769,75.8297944 30.3648957,77.0580516 30.3648957,78.5667657 C30.3648957,80.0769179 29.1202769,81.3051751 27.5914652,81.3051751 M27.5914652,74.8230262 C25.4986401,74.8230262 23.796398,76.5028909 23.796398,78.5667657 C23.796398,80.6320787 25.4986401,82.3119433 27.5914652,82.3119433 C29.6829787,82.3119433 31.3850751,80.6320787 31.3850751,78.5667657 C31.3850751,76.5028909 29.6829787,74.8230262 27.5914652,74.8230262" id="Fill-13" fill="#00276B"></path>
                    <mask id="mask-2" fill="white">
                        <use xlink:href="#path-1"></use>
                    </mask>
                    <g id="Clip-16"></g>
                    <path d="M23.480157,5.50558376 L31.7028027,5.50558376 L31.7028027,5.20930626 L23.480157,5.20930626 L23.480157,5.50558376 Z M31.8733184,4.20253807 L23.3096413,4.20253807 C22.8403587,4.20253807 22.4599776,4.57935702 22.4599776,5.04247039 L22.4599776,5.67385787 C22.4599776,6.13697124 22.8403587,6.51235195 23.3096413,6.51235195 L31.8733184,6.51235195 C32.3411435,6.51235195 32.7229821,6.13697124 32.7229821,5.67385787 L32.7229821,5.04247039 C32.7229821,4.57935702 32.3411435,4.20253807 31.8733184,4.20253807 Z" id="Fill-15" fill="#00276B" mask="url(#mask-2)"></path>
                    <path d="M63.8661872,55.4484484 C63.8661872,55.8842352 63.507667,56.2380423 63.0660751,56.2380423 L41.3260527,56.2380423 L46.6324428,46.3170609 C46.7284854,46.1344044 46.731546,45.9172301 46.6366693,45.7345736 C46.5420841,45.5519171 46.3626783,45.4254958 46.157185,45.3965871 L37.580537,44.1884653 L37.580537,25.7703604 C37.580537,25.755978 37.5818487,25.7415956 37.5833061,25.725775 L42.5036312,26.3701066 C42.5517253,26.3758596 42.5982164,26.378736 42.6463105,26.378736 C42.9058733,26.378736 43.1594608,26.2866887 43.3575213,26.1155381 C43.5923083,25.9127462 43.726389,25.6207834 43.726389,25.313 L43.726389,20.7767902 L63.0660751,20.7767902 C63.507667,20.7767902 63.8661872,21.1305973 63.8661872,21.5649459 L63.8661872,55.4484484 Z M35.9670504,47.3856734 L35.8928688,47.2619848 L34.377028,44.7538376 L35.8928688,44.9679915 L45.478037,46.318643 L40.1921962,56.2006481 L38.5803128,52.4728731 C38.5147298,52.3173993 38.3848756,52.1937107 38.2274765,52.1318663 C38.0671626,52.070022 37.8922747,52.0728985 37.7350213,52.141934 C37.4361087,52.2713756 36.7789675,52.5877885 35.8928688,53.1919932 C33.8131603,54.6085161 30.4668262,57.6029323 27.4924204,63.4738291 C27.4734742,62.311731 27.6060975,60.6348866 28.2356939,58.6573063 C29.4424204,54.8587699 31.9970953,51.3379577 35.8258285,48.1925262 C35.8506043,48.1723909 35.8724652,48.1508173 35.8928688,48.1279492 C36.0794159,47.9250135 36.1127904,47.6258596 35.9670504,47.3856734 Z M42.7062096,21.3233215 L42.7062096,25.313 C42.7062096,25.3302589 42.70038,25.3460795 42.6858061,25.3575854 C42.6725437,25.3690914 42.6566581,25.3748443 42.6377119,25.3719679 L38.3194383,24.8067394 L42.7062096,21.3233215 Z M42.5370056,20.1655381 L41.7676446,20.7767902 L37.2395056,24.3709526 C36.8081155,24.7132538 36.5603576,25.2238291 36.5603576,25.7703604 L36.5603576,44.0446413 L35.8928688,43.9497174 L33.7328576,43.6449543 C33.4867029,43.6102927 33.2475437,43.7168663 33.1106939,43.9195144 C32.972241,44.1237445 32.9662657,44.3827716 33.0932052,44.5940491 L34.9251558,47.6258596 C31.080537,50.8446413 28.502398,54.4531861 27.2621513,58.355132 C26.2389114,61.5724755 26.45038,64.0706988 26.588833,64.9954873 C26.6296401,65.2745059 26.84825,65.4873655 27.129528,65.5276362 C27.1601334,65.5319509 27.1907388,65.5333892 27.2213442,65.5333892 C27.4705594,65.5333892 27.6963105,65.3925854 27.8028464,65.1637614 C29.5983621,61.2963333 31.7800886,58.1437107 34.2882724,55.7936261 C34.8681715,55.2514095 35.4088666,54.8042606 35.8928688,54.440242 C36.7221289,53.8174839 37.3867029,53.4379323 37.7991469,53.2292437 L39.2900661,56.6781438 L39.5682836,57.321181 C39.6660751,57.5468409 39.8817702,57.6935415 40.129528,57.703753 C40.3756827,57.7151151 40.6059518,57.584379 40.7210863,57.3670609 L40.786815,57.2448105 L48.3855482,57.2448105 L48.3855482,68.2344044 C48.3855482,70.0379577 46.9006043,71.5035245 45.0757948,71.5035245 L8.29118722,71.5035245 C6.46506614,71.5035245 4.97837332,70.0379577 4.97837332,68.2344044 L4.97837332,13.1023401 C4.97837332,11.300225 6.46506614,9.83321997 8.29118722,9.83321997 L45.0757948,9.83321997 C45.6370392,9.83321997 46.1675325,9.97272927 46.6308397,10.2172301 C47.6743374,10.7680761 48.3855482,11.8553858 48.3855482,13.1023401 L48.3855482,19.770022 L43.6781491,19.770022 C43.2643935,19.770022 42.8590908,19.9109695 42.5370056,20.1655381 Z M52.3469047,80.6133384 C52.3469047,82.4154535 50.8603576,83.8824585 49.0340908,83.8824585 L4.33289126,83.8824585 C2.50662444,83.8824585 1.02007735,82.4154535 1.02007735,80.6133384 L1.02007735,4.27298308 C1.02007735,2.47230626 2.50662444,1.00673942 4.33289126,1.00673942 L49.0340908,1.00673942 C50.8603576,1.00673942 52.3469047,2.47230626 52.3469047,4.27298308 L52.3469047,19.770022 L49.4057276,19.770022 L49.4057276,13.1023401 C49.4057276,11.7604619 48.7762769,10.5609695 47.7939899,9.7771286 C47.0507164,9.18313536 46.1048643,8.82645178 45.0757948,8.82645178 L8.29118722,8.82645178 C5.90236435,8.82645178 3.95819395,10.7450643 3.95819395,13.1023401 L3.95819395,68.2344044 C3.95819395,70.5931184 5.90236435,72.5102927 8.29118722,72.5102927 L45.0757948,72.5102927 C47.4631603,72.5102927 49.4057276,70.5931184 49.4057276,68.2344044 L49.4057276,57.2448105 L52.3469047,57.2448105 L52.3469047,80.6133384 Z M63.0660751,19.770022 L53.3670841,19.770022 L53.3670841,4.27298308 C53.3670841,1.91714552 51.4229137,-2.87648054e-05 49.0340908,-2.87648054e-05 L4.33289126,-2.87648054e-05 C1.94421413,-2.87648054e-05 -0.000102017937,1.91714552 -0.000102017937,4.27298308 L-0.000102017937,80.6133384 C-0.000102017937,82.9706142 1.94421413,84.8892267 4.33289126,84.8892267 L49.0340908,84.8892267 C51.4229137,84.8892267 53.3670841,82.9706142 53.3670841,80.6133384 L53.3670841,57.2448105 L63.0660751,57.2448105 C64.0700774,57.2448105 64.8863666,56.4395398 64.8863666,55.4484484 L64.8863666,21.5649459 C64.8863666,20.5754365 64.0700774,19.770022 63.0660751,19.770022 Z" id="Fill-17" fill="#00276B" mask="url(#mask-2)"></path>
                    <path d="M59.6512578,30.4576142 C59.6512578,30.7366328 59.4225919,30.9609983 59.1411682,30.9609983 L42.022704,30.9609983 C41.7412803,30.9609983 41.5126143,30.7366328 41.5126143,30.4576142 C41.5126143,30.1800338 41.7412803,29.9542301 42.022704,29.9542301 L59.1411682,29.9542301 C59.4225919,29.9542301 59.6512578,30.1800338 59.6512578,30.4576142" id="Fill-18" fill="#00276B" mask="url(#mask-2)"></path>
                    <path d="M59.6512578,36.6708409 C59.6512578,36.9498596 59.4225919,37.174225 59.1411682,37.174225 L42.022704,37.174225 C41.7412803,37.174225 41.5126143,36.9498596 41.5126143,36.6708409 C41.5126143,36.3932606 41.7412803,36.1674569 42.022704,36.1674569 L59.1411682,36.1674569 C59.4225919,36.1674569 59.6512578,36.3932606 59.6512578,36.6708409" id="Fill-19" fill="#00276B" mask="url(#mask-2)"></path>
                    <path d="M59.6512578,42.8840677 C59.6512578,43.1616481 59.4225919,43.3874518 59.1411682,43.3874518 L50.9068632,43.3874518 C50.6255852,43.3874518 50.3967735,43.1616481 50.3967735,42.8840677 C50.3967735,42.6063435 50.6255852,42.3806836 50.9068632,42.3806836 L59.1411682,42.3806836 C59.4225919,42.3806836 59.6512578,42.6063435 59.6512578,42.8840677" id="Fill-20" fill="#00276B" mask="url(#mask-2)"></path>
                </g>
            </g>
        </g>
    </g>
</svg>