<?xml version="1.0" encoding="UTF-8"?>
<svg width="12px" height="9px" viewBox="0 0 12 9" version="1.1" xmlns="http://www.w3.org/2000/svg" xmlns:xlink="http://www.w3.org/1999/xlink">
    <!-- Generator: Sketch 52.2 (67145) - http://www.bohemiancoding.com/sketch -->
    <title>Menu icon</title>
    <desc>Created with Sketch.</desc>
    <g id="Mainpage" stroke="none" stroke-width="1" fill="none" fill-rule="evenodd">
        <g id="Mobile" transform="translate(-293.000000, -13.000000)" fill="#000000">
            <g id="Menu-icon" transform="translate(293.000000, 13.000000)">
                <path d="M11.5520654,5 L10.1636693,5 L8.77527312,5 L7.38692165,5 L5.9985255,5 L4.61012935,5 L3.22173321,5 L1.83338174,5 L0.44498559,5 C0.41442327,5 0.384531177,4.99654983 0.355666763,4.9899495 C0.32680235,4.98329916 0.298920936,4.97359868 0.272335292,4.96104805 C0.245704966,4.94844742 0.220459775,4.93304665 0.196778446,4.91524576 C0.173097116,4.89734487 0.150979647,4.87699385 0.130828176,4.85449272 C0.110676705,4.8319416 0.0924018677,4.80729036 0.0763611179,4.78073904 C0.0603203682,4.75423771 0.0464690244,4.72588629 0.0351645406,4.6959848 C0.0238600567,4.66613331 0.0150577512,4.63473174 0.00911507786,4.60218011 C0.00317240455,4.56962848 0,4.53587679 0,4.50122506 C0,4.46662333 0.00317240455,4.43282164 0.00911507786,4.40022001 C0.0150577512,4.36761838 0.0238600567,4.33611681 0.0351645406,4.30611531 C0.0464690244,4.27611381 0.0603203682,4.24761238 0.0763611179,4.22096105 C0.0924018677,4.19430972 0.110676705,4.16950848 0.130828176,4.14680734 C0.150979647,4.12410621 0.173097116,4.10360518 0.196778446,4.08560428 C0.220459775,4.06760338 0.245704966,4.0520526 0.272335292,4.03940197 C0.298920936,4.02670134 0.32680235,4.01685084 0.355666763,4.01020051 C0.384531177,4.00350018 0.41442327,4 0.44498559,4 L1.83338174,4 L3.22173321,4 L4.61012935,4 L5.9985255,4 L7.38692165,4 L8.77527312,4 L10.1636693,4 L11.5520654,4 C11.5829852,4 11.6131901,4.00350018 11.6423672,4.01020051 C11.6714997,4.01685084 11.6996492,4.02670134 11.7264136,4.03940197 C11.7532227,4.0520526 11.7786913,4.06760338 11.8025066,4.08560428 C11.8263667,4.10360518 11.8485735,4.12410621 11.8688144,4.14680734 C11.8890552,4.16950848 11.9074194,4.19430972 11.9235048,4.22096105 C11.9395903,4.24761238 11.9534416,4.27611381 11.9647908,4.30611531 C11.9761399,4.33611681 11.9849422,4.36761838 11.9908849,4.40022001 C11.9968723,4.43282164 12,4.46662333 12,4.50122506 C12,4.53587679 11.9968723,4.56962848 11.9908849,4.60218011 C11.9849422,4.63473174 11.9761399,4.66613331 11.9647908,4.6959848 C11.9534416,4.72588629 11.9395903,4.75423771 11.9235048,4.78073904 C11.9074194,4.80729036 11.8890552,4.8319416 11.8688144,4.85449272 C11.8485735,4.87699385 11.8263667,4.89734487 11.8025066,4.91524576 C11.7786913,4.93304665 11.7532227,4.94844742 11.7264136,4.96104805 C11.6996492,4.97359868 11.6714997,4.98329916 11.6423672,4.9899495 C11.6131901,4.99654983 11.5829852,5 11.5520654,5" id="Fill-6"></path>
                <path d="M11.5520654,1 L10.1636693,1 L8.77527312,1 L7.38692165,1 L5.9985255,1 L4.61012935,1 L3.22173321,1 L1.83338174,1 L0.44498559,1 C0.41442327,1 0.384531177,0.9965 0.355666763,0.9898 C0.32680235,0.98305 0.298920936,0.9732 0.272335292,0.9605 C0.245704966,0.94785 0.220459775,0.9323 0.196778446,0.9143 C0.173097116,0.8963 0.150979647,0.87585 0.130828176,0.85315 C0.110676705,0.83055 0.0924018677,0.8058 0.0763611179,0.77925 C0.0603203682,0.7527 0.0464690244,0.72435 0.0351645406,0.6946 C0.0238600567,0.6648 0.0150577512,0.63355 0.00911507786,0.6012 C0.00317240455,0.56885 0,0.53545 0,0.5012 C0,0.4666 0.00317240455,0.4328 0.00911507786,0.4002 C0.0150577512,0.3676 0.0238600567,0.3361 0.0351645406,0.3061 C0.0464690244,0.2761 0.0603203682,0.24765 0.0763611179,0.221 C0.0924018677,0.1943 0.110676705,0.1695 0.130828176,0.1468 C0.150979647,0.1241 0.173097116,0.1036 0.196778446,0.0856 C0.220459775,0.0676 0.245704966,0.05205 0.272335292,0.0394 C0.298920936,0.0267 0.32680235,0.01685 0.355666763,0.0102 C0.384531177,0.0035 0.41442327,0 0.44498559,0 L1.83338174,0 L3.22173321,0 L4.61012935,0 L5.9985255,0 L7.38692165,0 L8.77527312,0 L10.1636693,0 L11.5520654,0 C11.5829852,0 11.6131901,0.0035 11.6423672,0.0102 C11.6714997,0.01685 11.6996492,0.0267 11.7264136,0.0394 C11.7532227,0.05205 11.7786913,0.0676 11.8025066,0.0856 C11.8263667,0.1036 11.8485735,0.1241 11.8688144,0.1468 C11.8890552,0.1695 11.9074194,0.1943 11.9235048,0.221 C11.9395903,0.24765 11.9534416,0.2761 11.9647908,0.3061 C11.9761399,0.3361 11.9849422,0.3676 11.9908849,0.4002 C11.9968723,0.4328 12,0.4666 12,0.5012 C12,0.53545 11.9968723,0.56885 11.9908849,0.6012 C11.9849422,0.63355 11.9761399,0.6648 11.9647908,0.6946 C11.9534416,0.72435 11.9395903,0.7527 11.9235048,0.77925 C11.9074194,0.8058 11.8890552,0.83055 11.8688144,0.85315 C11.8485735,0.87585 11.8263667,0.8963 11.8025066,0.9143 C11.7786913,0.9323 11.7532227,0.94785 11.7264136,0.9605 C11.6996492,0.9732 11.6714997,0.98305 11.6423672,0.9898 C11.6131901,0.9965 11.5829852,1 11.5520654,1" id="Fill-10"></path>
                <path d="M11.5520654,9 L10.1636693,9 L8.77527312,9 L7.38692165,9 L5.9985255,9 L4.61012935,9 L3.22173321,9 L1.83338174,9 L0.44498559,9 C0.41442327,9 0.384531177,8.99649982 0.355666763,8.98979949 C0.32680235,8.98309915 0.298920936,8.97324866 0.272335292,8.96049802 C0.245704966,8.94779739 0.220459775,8.93224661 0.196778446,8.91414571 C0.173097116,8.8960948 0.150979647,8.87554378 0.130828176,8.85284264 C0.110676705,8.8300915 0.0924018677,8.80519026 0.0763611179,8.77843892 C0.0603203682,8.75173759 0.0464690244,8.72323616 0.0351645406,8.69318466 C0.0238600567,8.66318316 0.0150577512,8.63168158 0.00911507786,8.59897995 C0.00317240455,8.56632832 0,8.53252663 0,8.4979249 C0,8.46372319 0.00317240455,8.43027151 0.00911507786,8.3979699 C0.0150577512,8.36566828 0.0238600567,8.33441672 0.0351645406,8.30471524 C0.0464690244,8.27496375 0.0603203682,8.24666233 0.0763611179,8.22016101 C0.0924018677,8.19365968 0.110676705,8.16895845 0.130828176,8.14635732 C0.150979647,8.12380619 0.173097116,8.10335517 0.196778446,8.08540427 C0.220459775,8.06745337 0.245704966,8.0520026 0.272335292,8.03930197 C0.298920936,8.02665133 0.32680235,8.01685084 0.355666763,8.01015051 C0.384531177,8.00350018 0.41442327,8 0.44498559,8 L1.83338174,8 L3.22173321,8 L4.61012935,8 L5.9985255,8 L7.38692165,8 L8.77527312,8 L10.1636693,8 L11.5520654,8 C11.5829852,8 11.6131901,8.00350018 11.6423672,8.01015051 C11.6714997,8.01685084 11.6996492,8.02665133 11.7264136,8.03930197 C11.7532227,8.0520026 11.7786913,8.06745337 11.8025066,8.08540427 C11.8263667,8.10335517 11.8485735,8.12380619 11.8688144,8.14635732 C11.8890552,8.16895845 11.9074194,8.19365968 11.9235048,8.22016101 C11.9395903,8.24666233 11.9534416,8.27496375 11.9647908,8.30471524 C11.9761399,8.33441672 11.9849422,8.36566828 11.9908849,8.3979699 C11.9968723,8.43027151 12,8.46372319 12,8.4979249 C12,8.53252663 11.9968723,8.56632832 11.9908849,8.59897995 C11.9849422,8.63168158 11.9761399,8.66318316 11.9647908,8.69318466 C11.9534416,8.72323616 11.9395903,8.75173759 11.9235048,8.77843892 C11.9074194,8.80519026 11.8890552,8.8300915 11.8688144,8.85284264 C11.8485735,8.87554378 11.8263667,8.8960948 11.8025066,8.91414571 C11.7786913,8.93224661 11.7532227,8.94779739 11.7264136,8.96049802 C11.6996492,8.97324866 11.6714997,8.98309915 11.6423672,8.98979949 C11.6131901,8.99649982 11.5829852,9 11.5520654,9" id="Fill-14"></path>
            </g>
        </g>
    </g>
</svg>