<?xml version="1.0" encoding="UTF-8" standalone="no"?>
<svg width="85px" height="85px" viewBox="0 0 85 85" version="1.1" xmlns="http://www.w3.org/2000/svg" xmlns:xlink="http://www.w3.org/1999/xlink">
    <!-- Generator: Sketch 49.3 (51167) - http://www.bohemiancoding.com/sketch -->
    <title>Group 28</title>
    <desc>Created with Sketch.</desc>
    <defs>
        <path d="M7.90827869,0.328354839 L6.94540984,0.834919355 C6.86598361,0.875612903 6.81581967,0.957 6.81442623,1.04680645 L6.78795082,1.83541935 C4.98762295,2.07116129 3.3252459,3.11937097 2.08647541,4.80464516 C0.807295082,6.55166129 0.100819672,8.82629032 0.100819672,11.2089677 C0.100819672,11.6411613 0.124508197,12.0733548 0.170491803,12.497129 C0.183032787,12.6234194 0.288934426,12.7188387 0.414344262,12.7188387 L1.805,12.7188387 C1.87467213,12.7188387 1.94155738,12.6879677 1.98754098,12.6346452 C2.03631148,12.5799194 2.05581967,12.5083548 2.04745902,12.4367903 C1.98614754,11.975129 1.9554918,11.5022419 1.9554918,11.0307581 C1.9554918,9.07045161 2.485,7.19433871 3.44368852,5.75182258 C4.31877049,4.437 5.4795082,3.58243548 6.74057377,3.32283871 L6.47581967,11.7127258 C6.47442623,11.7997258 6.51483607,11.8839194 6.59008197,11.931629 C6.66254098,11.9779355 6.75311475,11.9821452 6.83114754,11.9428548 L8.35696721,11.1612581 C8.44196721,11.1191613 8.49491803,11.0307581 8.49213115,10.9339355 L8.32631148,3.306 C9.6054918,3.54595161 10.7871311,4.3935 11.677541,5.71674194 C12.6515574,7.16627419 13.1866393,9.05220968 13.1866393,11.0307581 C13.1866393,11.5022419 13.157377,11.975129 13.097459,12.4367903 C13.0863115,12.5083548 13.1086066,12.5799194 13.1545902,12.6346452 C13.2005738,12.6879677 13.2688525,12.7188387 13.339918,12.7188387 L14.7305738,12.7188387 C14.8545902,12.7188387 14.9604918,12.6234194 14.9744262,12.497129 C15.0190164,12.0733548 15.0427049,11.6411613 15.0427049,11.2089677 C15.0427049,8.81085484 14.3306557,6.52640323 13.0347541,4.77658065 C11.7848361,3.08709677 10.1085246,2.04590323 8.29565574,1.82559677 L8.26778689,0.544451613 C8.265,0.458854839 8.21901639,0.380274194 8.14655738,0.335370968 C8.10754098,0.312919355 8.06434426,0.301693548 8.0197541,0.301693548 C7.9807377,0.301693548 7.94311475,0.310112903 7.90827869,0.328354839 Z" id="path-1"></path>
        <path d="M8.90827869,0.328354839 L7.94540984,0.834919355 C7.86598361,0.875612903 7.81581967,0.957 7.81442623,1.04680645 L7.78795082,1.83541935 C5.98762295,2.07116129 4.3252459,3.11937097 3.08647541,4.80464516 C1.80729508,6.55166129 1.10081967,8.82629032 1.10081967,11.2089677 C1.10081967,11.6411613 1.1245082,12.0733548 1.1704918,12.497129 C1.18303279,12.6234194 1.28893443,12.7188387 1.41434426,12.7188387 L2.805,12.7188387 C2.87467213,12.7188387 2.94155738,12.6879677 2.98754098,12.6346452 C3.03631148,12.5799194 3.05581967,12.5083548 3.04745902,12.4367903 C2.98614754,11.975129 2.9554918,11.5022419 2.9554918,11.0307581 C2.9554918,9.07045161 3.485,7.19433871 4.44368852,5.75182258 C5.31877049,4.437 6.4795082,3.58243548 7.74057377,3.32283871 L7.47581967,11.7127258 C7.47442623,11.7997258 7.51483607,11.8839194 7.59008197,11.931629 C7.66254098,11.9779355 7.75311475,11.9821452 7.83114754,11.9428548 L9.35696721,11.1612581 C9.44196721,11.1191613 9.49491803,11.0307581 9.49213115,10.9339355 L9.32631148,3.306 C10.6054918,3.54595161 11.7871311,4.3935 12.677541,5.71674194 C13.6515574,7.16627419 14.1880328,9.05220968 14.1880328,11.0307581 C14.1880328,11.5022419 14.157377,11.975129 14.097459,12.4367903 C14.0863115,12.5083548 14.1086066,12.5799194 14.1545902,12.6346452 C14.2005738,12.6879677 14.2688525,12.7188387 14.339918,12.7188387 L15.7305738,12.7188387 C15.8545902,12.7188387 15.9604918,12.6234194 15.9744262,12.497129 C16.0190164,12.0733548 16.0427049,11.6411613 16.0427049,11.2089677 C16.0427049,8.81085484 15.3306557,6.52640323 14.0347541,4.77658065 C12.7848361,3.08709677 11.1085246,2.04590323 9.29565574,1.82559677 L9.26778689,0.544451613 C9.265,0.458854839 9.21901639,0.380274194 9.14655738,0.335370968 C9.10754098,0.312919355 9.06434426,0.301693548 9.0197541,0.301693548 C8.9807377,0.301693548 8.94311475,0.310112903 8.90827869,0.328354839 Z M1.59131148,11.2089677 C1.59131148,8.93293548 2.26295082,6.76214516 3.48221311,5.10212903 C4.68336066,3.46456452 6.30672131,2.47108065 8.04991803,2.30409677 C8.17114754,2.29427419 8.26590164,2.19043548 8.27008197,2.06554839 L8.29934426,1.20817742 L8.78565574,0.954193548 L8.80934426,2.05712903 C8.81213115,2.18482258 8.90827869,2.29006452 9.03368852,2.2998871 C12.690082,2.60719355 15.5522131,6.5193871 15.5522131,11.2089677 C15.5522131,11.5471452 15.5382787,11.8867258 15.507623,12.2206935 L14.6158197,12.2206935 C14.6590164,11.8277903 14.6785246,11.4292742 14.6785246,11.0307581 C14.6785246,8.95398387 14.1113934,6.96701613 13.0816393,5.43609677 C12.044918,3.89535484 10.6319672,2.94817742 9.10196721,2.76996774 C9.03229508,2.76154839 8.96262295,2.784 8.90827869,2.8331129 C8.85672131,2.88222581 8.82745902,2.94958065 8.82885246,3.02395161 L8.99745902,10.7894032 L7.97885246,11.3085968 L8.24081967,3.03517742 C8.24360656,2.96080645 8.21434426,2.89064516 8.16139344,2.84153226 C8.10565574,2.79241935 8.03459016,2.76996774 7.96352459,2.77979032 C6.45163934,2.98325806 5.05819672,3.93745161 4.03819672,5.47398387 C3.02377049,6.9978871 2.46639344,8.97082258 2.46639344,11.0307581 C2.46639344,11.4292742 2.48590164,11.8277903 2.52770492,12.2206935 L1.63590164,12.2206935 C1.60663934,11.8867258 1.59131148,11.5471452 1.59131148,11.2089677 Z" id="path-3"></path>
    </defs>
    <g id="Page-1" stroke="none" stroke-width="1" fill="none" fill-rule="evenodd">
        <g id="Mainpage-Copy-22" transform="translate(-983.000000, -1425.000000)">
            <g id="Group-21" transform="translate(135.000000, 1350.000000)">
                <g id="Group-20" transform="translate(818.000000, 74.000000)">
                    <g id="Group-28" transform="translate(30.000000, 0.000000)">
                        <g id="Group-3" transform="translate(60.918033, 63.524032)">
                            <mask id="mask-2" fill="white">
                                <use xlink:href="#path-1"></use>
                            </mask>
                            <g id="Clip-2"></g>
                            <polygon id="Fill-1" fill="#8BC5FF" mask="url(#mask-2)" points="-2.35860656 15.194129 17.5007377 15.194129 17.5007377 -2.17359677 -2.35860656 -2.17359677"></polygon>
                        </g>
                        <g id="Group-6" transform="translate(59.918033, 63.524032)">
                            <mask id="mask-4" fill="white">
                                <use xlink:href="#path-3"></use>
                            </mask>
                            <g id="Clip-5"></g>
                            <polygon id="Fill-4" fill="#00276B" mask="url(#mask-4)" points="-1.35860656 15.194129 18.5007377 15.194129 18.5007377 -2.17359677 -1.35860656 -2.17359677"></polygon>
                        </g>
                        <g id="Group-27" transform="translate(0.000000, 0.378871)" fill="#00276B">
                            <path d="M76.4938689,83.9012565 L70.116082,83.9012565 L59.8547705,83.9012565 C48.8396066,77.404321 54.0120656,66.7243694 54.233623,66.2795468 L60.6796885,53.8034661 L75.6675574,53.8034661 L82.1094426,66.2725306 C82.123377,66.3005952 83.508459,69.0972242 83.4917377,72.6838694 C83.4694426,77.4029177 81.1145246,81.1761919 76.4938689,83.9012565 Z M58.7832131,47.0427242 C59.8728852,47.0427242 60.2700164,45.8401597 60.6197705,44.7807242 C60.7577213,44.3625629 61.0155082,43.5837726 61.0726393,43.4602887 C61.2565738,43.5837726 61.5143607,44.3625629 61.6523115,44.7807242 C62.0020656,45.8401597 62.3991967,47.0427242 63.4888689,47.0427242 C64.5799344,47.0427242 64.9770656,45.8401597 65.3268197,44.779321 C65.4647705,44.3611597 65.7225574,43.5837726 65.7782951,43.4602887 C65.9622295,43.5837726 66.2200164,44.3625629 66.3579672,44.7807242 C66.7077213,45.8401597 67.1048525,47.0427242 68.1945246,47.0427242 C69.2855902,47.0427242 69.6827213,45.8401597 70.0324754,44.779321 C70.1704262,44.3611597 70.4268197,43.5837726 70.4839508,43.4602887 C70.6678852,43.5837726 70.9256721,44.3611597 71.063623,44.779321 C71.413377,45.8401597 71.8105082,47.0427242 72.9015738,47.0427242 C73.9926393,47.0427242 74.3897705,45.8401597 74.7395246,44.779321 C74.8774754,44.3611597 75.1338689,43.5837726 75.191,43.4616919 C75.3763279,43.5837726 75.6341148,44.3625629 75.7706721,44.7807242 C76.1218197,45.8415629 76.5189508,47.0427242 77.6100164,47.0427242 L77.6197705,47.0427242 L75.6090328,52.4002403 L60.7396066,52.4002403 L58.7553443,47.0427242 L58.7832131,47.0427242 Z M55.2550164,13.2488371 L55.2550164,3.54272419 L67.5479672,15.9219823 L57.9095246,15.9219823 C56.4450164,15.9219823 55.2550164,14.7236274 55.2550164,13.2488371 Z M83.3496066,65.6312565 L76.853377,53.05695 L80.2199344,44.0805145 C80.4024754,43.5935952 80.1697705,43.0603694 79.6890328,42.865321 C79.2124754,42.6716758 78.6787869,42.890579 78.4767377,43.3676758 C78.3499344,43.6623532 78.238459,43.9991274 78.1269836,44.3373048 C77.9876393,44.7554661 77.7312459,45.5328532 77.6741148,45.6563371 C77.4887869,45.5328532 77.231,44.7554661 77.0944426,44.3373048 C76.7432951,43.2764661 76.3461639,42.0739016 75.2537049,42.0739016 C74.1640328,42.0739016 73.7669016,43.2764661 73.4171475,44.3373048 C73.2791967,44.7554661 73.0228033,45.5328532 72.9656721,45.6563371 C72.7803443,45.5328532 72.5225574,44.7554661 72.386,44.3373048 C72.0362459,43.2764661 71.6391148,42.0739016 70.5466557,42.0739016 C69.4569836,42.0739016 69.0598525,43.2764661 68.7100984,44.3373048 C68.5721475,44.7554661 68.3157541,45.5328532 68.258623,45.6563371 C68.0746885,45.5328532 67.8169016,44.7554661 67.6803443,44.3387081 C67.3305902,43.2764661 66.933459,42.0739016 65.841,42.0739016 C64.7513279,42.0739016 64.3541967,43.2764661 64.0044426,44.3373048 C63.8664918,44.7554661 63.6100984,45.5328532 63.5529672,45.6563371 C63.3690328,45.5328532 63.1112459,44.7554661 62.9746885,44.3387081 C62.6249344,43.2764661 62.2278033,42.0739016 61.1367377,42.0739016 C60.0442787,42.0739016 59.6471475,43.2764661 59.2973934,44.3387081 C59.1608361,44.7554661 58.9030492,45.5328532 58.8473115,45.6563371 C58.6619836,45.5328532 58.4055902,44.7540629 58.2676393,44.3359016 C58.1478033,43.9738694 58.0279672,43.6146435 57.8900164,43.3017242 C57.6782131,42.8274339 57.158459,42.6127403 56.6749344,42.8148048 C56.1941967,43.0140629 55.968459,43.5332565 56.1482131,44.0243855 L59.4966557,53.0541435 L52.9948525,65.6382726 C52.9377213,65.7547403 47.625918,76.6521919 57.3312459,83.9012565 L4.75944262,83.9012565 C3.28657377,83.9012565 2.08960656,82.6958855 2.08960656,81.2126758 L2.08960656,4.96980484 C2.08960656,3.48659516 3.28657377,2.27982097 4.75944262,2.27982097 L53.8615738,2.27982097 L53.8615738,13.2488371 C53.8615738,15.4968048 55.678623,17.3252081 57.9095246,17.3252081 L68.8090328,17.3252081 L68.8090328,35.4576919 C68.8090328,35.8449823 69.1211639,36.1593048 69.5057541,36.1593048 C69.8917377,36.1593048 70.2024754,35.8449823 70.2024754,35.4576919 L70.2024754,16.6109661 L54.5778033,0.876595161 L4.75944262,0.876595161 C2.51878689,0.876595161 0.696163934,2.71341774 0.696163934,4.96980484 L0.696163934,81.2126758 C0.696163934,83.4690629 2.51878689,85.3044823 4.75944262,85.3044823 L59.4799344,85.3044823 L70.116082,85.3044823 L76.8687049,85.3044823 L77.0289508,85.2118694 C89.411082,78.0540145 83.4150984,65.7617565 83.3496066,65.6312565 Z" id="Fill-7"></path>
                            <path d="M48.0268033,47 L19.6967213,47 C19.3121311,47 19,47.3143226 19,47.7016129 C19,48.0889032 19.3121311,48.4032258 19.6967213,48.4032258 L48.0268033,48.4032258 C48.4113934,48.4032258 48.7235246,48.0889032 48.7235246,47.7016129 C48.7235246,47.3143226 48.4113934,47 48.0268033,47" id="Fill-9"></path>
                            <path d="M48.0268033,37 L19.6967213,37 C19.3121311,37 19,37.3143226 19,37.7016129 C19,38.0889032 19.3121311,38.4032258 19.6967213,38.4032258 L48.0268033,38.4032258 C48.4113934,38.4032258 48.7235246,38.0889032 48.7235246,37.7016129 C48.7235246,37.3143226 48.4113934,37 48.0268033,37" id="Fill-9-Copy"></path>
                            <path d="M47.8918033,56 L13.6967213,56 C13.3121311,56 13,56.3143226 13,56.7016129 C13,57.0889032 13.3121311,57.4032258 13.6967213,57.4032258 L47.8918033,57.4032258 C48.2763934,57.4032258 48.5885246,57.0889032 48.5885246,56.7016129 C48.5885246,56.3143226 48.2763934,56 47.8918033,56" id="Fill-11"></path>
                            <path d="M13.6967213,26 C13.3121311,26 13,26.3143226 13,26.7016129 C13,27.0889032 13.3121311,27.4032258 13.6967213,27.4032258 L47.8918033,27.4032258 C48.2763934,27.4032258 48.5885246,27.0889032 48.5885246,26.7016129 C48.5885246,26.3143226 48.2763934,26 47.8918033,26 L13.6967213,26 Z" id="Fill-11-Copy"></path>
                            <path d="M13.6967213,17 C13.3121311,17 13,17.3143226 13,17.7016129 C13,18.0889032 13.3121311,18.4032258 13.6967213,18.4032258 L47.8918033,18.4032258 C48.2763934,18.4032258 48.5885246,18.0889032 48.5885246,17.7016129 C48.5885246,17.3143226 48.2763934,17 47.8918033,17 L13.6967213,17 Z" id="Fill-11-Copy-2"></path>
                            <path d="M13.3247558,9 C13.1454906,9 13,9.31432258 13,9.7016129 C13,10.0889032 13.1454906,10.4032258 13.3247558,10.4032258 L29.2637688,10.4032258 C29.443034,10.4032258 29.5885246,10.0889032 29.5885246,9.7016129 C29.5885246,9.31432258 29.443034,9 29.2637688,9 L13.3247558,9 Z" id="Fill-11-Copy-3"></path>
                            <path d="M47.5391066,65.4764806 L19.2090246,65.4764806 C18.8244344,65.4764806 18.5123033,65.7908032 18.5123033,66.1780935 C18.5123033,66.5653839 18.8244344,66.8797065 19.2090246,66.8797065 L47.5391066,66.8797065 C47.9236967,66.8797065 48.2358279,66.5653839 48.2358279,66.1780935 C48.2358279,65.7908032 47.9236967,65.4764806 47.5391066,65.4764806" id="Fill-13"></path>
                            <path d="M13.3438852,76.3151371 L47.5389672,76.3151371 C47.9235574,76.3151371 48.2356885,76.0008145 48.2356885,75.6135242 C48.2356885,75.2262339 47.9235574,74.9119113 47.5389672,74.9119113 L13.3438852,74.9119113 C12.9592951,74.9119113 12.6471639,75.2262339 12.6471639,75.6135242 C12.6471639,76.0008145 12.9592951,76.3151371 13.3438852,76.3151371" id="Fill-15"></path>
                            <path d="M13.9433607,47.8999677 C14.4645082,47.8999677 14.8881148,47.4747903 14.8881148,46.9499839 C14.8881148,46.4251774 14.4645082,46 13.9433607,46 C13.4222131,46 13,46.4251774 13,46.9499839 C13,47.4747903 13.4222131,47.8999677 13.9433607,47.8999677" id="Fill-17"></path>
                            <path d="M13.9433607,38.8999677 C14.4645082,38.8999677 14.8881148,38.4747903 14.8881148,37.9499839 C14.8881148,37.4251774 14.4645082,37 13.9433607,37 C13.4222131,37 13,37.4251774 13,37.9499839 C13,38.4747903 13.4222131,38.8999677 13.9433607,38.8999677" id="Fill-17-Copy"></path>
                            <path d="M13.5902459,67.1283581 C14.1113934,67.1283581 14.535,66.7031806 14.535,66.1783742 C14.535,65.6535677 14.1113934,65.2283903 13.5902459,65.2283903 C13.0690984,65.2283903 12.6468852,65.6535677 12.6468852,66.1783742 C12.6468852,66.7031806 13.0690984,67.1283581 13.5902459,67.1283581" id="Fill-19"></path>
                        </g>
                    </g>
                </g>
            </g>
        </g>
    </g>
</svg>